<?xml version="1.0" encoding="utf-8"?>
<!-- Generated by Mocodo 4.2.12 -->
<svg width="520" height="543" viewBox="0 0 520 543" xmlns="http://www.w3.org/2000/svg">
<rect x="0" y="0" width="520" height="543" fill="#f7f7f7" stroke="none" stroke-width="0"/>

<!-- Association CONTENIR -->
<g>
	<line x1="227" y1="85" x2="88" y2="85" stroke="#5aae61" stroke-width="2"/>
	<line x1="88" y1="305" x2="88" y2="85" stroke="#5aae61" stroke-width="2"/>
	<g>
		<path d="M106 60 a14 14 90 0 1 14 14 V85 h-64 V74 a14 14 90 0 1 14 -14" fill="#a6dba0" stroke="#a6dba0" stroke-width="0"/>
		<path d="M120 85 v11 a14 14 90 0 1 -14 14 H70 a14 14 90 0 1 -14 -14 V85 H64" fill="#d9f0d3" stroke="#d9f0d3" stroke-width="0"/>
		<rect x="56" y="60" width="64" height="50" fill="none" rx="14" stroke="#5aae61" stroke-width="2"/>
		<line x1="56" y1="85" x2="120" y2="85" stroke="#5aae61" stroke-width="1"/>
		<text x="63" y="77.75" fill="#000000" font-family="Verdana" font-size="12">contenir</text>
	</g>
	<text x="160" y="102" fill="#762a83" font-family="Verdana" font-size="12">0,N</text>
	<text x="93" y="178" fill="#762a83" font-family="Verdana" font-size="12">1,1</text>
</g>

<!-- Association INCLURE -->
<g>
	<line x1="337" y1="305" x2="227" y2="305" stroke="#5aae61" stroke-width="2"/>
	<line x1="88" y1="305" x2="227" y2="305" stroke="#5aae61" stroke-width="2"/>
	<g>
		<path d="M241 280 a14 14 90 0 1 14 14 V305 h-56 V294 a14 14 90 0 1 14 -14" fill="#a6dba0" stroke="#a6dba0" stroke-width="0"/>
		<path d="M255 305 v11 a14 14 90 0 1 -14 14 H213 a14 14 90 0 1 -14 -14 V305 H56" fill="#d9f0d3" stroke="#d9f0d3" stroke-width="0"/>
		<rect x="199" y="280" width="56" height="50" fill="none" rx="14" stroke="#5aae61" stroke-width="2"/>
		<line x1="199" y1="305" x2="255" y2="305" stroke="#5aae61" stroke-width="1"/>
		<text x="207" y="297.75" fill="#000000" font-family="Verdana" font-size="12">inclure</text>
	</g>
	<text x="260" y="322" fill="#762a83" font-family="Verdana" font-size="12">0,N</text>
	<text x="172" y="322" fill="#762a83" font-family="Verdana" font-size="12">0,N</text>
</g>

<!-- Association POSSEDER -->
<g>
	<line x1="459" y1="483" x2="459" y2="305" stroke="#5aae61" stroke-width="2"/>
	<line x1="337" y1="305" x2="459" y2="305" stroke="#5aae61" stroke-width="2"/>
	<g>
		<path d="M480 280 a14 14 90 0 1 14 14 V305 h-70 V294 a14 14 90 0 1 14 -14" fill="#a6dba0" stroke="#a6dba0" stroke-width="0"/>
		<path d="M494 305 v11 a14 14 90 0 1 -14 14 H438 a14 14 90 0 1 -14 -14 V305 H70" fill="#d9f0d3" stroke="#d9f0d3" stroke-width="0"/>
		<rect x="424" y="280" width="70" height="50" fill="none" rx="14" stroke="#5aae61" stroke-width="2"/>
		<line x1="424" y1="305" x2="494" y2="305" stroke="#5aae61" stroke-width="1"/>
		<text x="432" y="297.75" fill="#000000" font-family="Verdana" font-size="12">posséder</text>
	</g>
	<text x="464" y="424" fill="#762a83" font-family="Verdana" font-size="12">0,1</text>
	<text x="392" y="322" fill="#762a83" font-family="Verdana" font-size="12">1,1</text>
</g>

<!-- Association ENGLOBER -->
<g>
	<line x1="227" y1="483" x2="88" y2="483" stroke="#5aae61" stroke-width="2"/>
	<line x1="88" y1="305" x2="88" y2="483" stroke="#5aae61" stroke-width="2"/>
	<g>
		<path d="M108 458 a14 14 90 0 1 14 14 V483 h-68 V472 a14 14 90 0 1 14 -14" fill="#a6dba0" stroke="#a6dba0" stroke-width="0"/>
		<path d="M122 483 v11 a14 14 90 0 1 -14 14 H68 a14 14 90 0 1 -14 -14 V483 H68" fill="#d9f0d3" stroke="#d9f0d3" stroke-width="0"/>
		<rect x="54" y="458" width="68" height="50" fill="none" rx="14" stroke="#5aae61" stroke-width="2"/>
		<line x1="54" y1="483" x2="122" y2="483" stroke="#5aae61" stroke-width="1"/>
		<text x="61" y="475.75" fill="#000000" font-family="Verdana" font-size="12">englober</text>
	</g>
	<text x="164" y="500" fill="#762a83" font-family="Verdana" font-size="12">1,N</text>
	<text x="93" y="441" fill="#762a83" font-family="Verdana" font-size="12">0,N</text>
</g>

<!-- Association CONSTRUIRE -->
<g>
	<line x1="459" y1="483" x2="337" y2="483" stroke="#5aae61" stroke-width="2"/>
	<line x1="227" y1="483" x2="337" y2="483" stroke="#5aae61" stroke-width="2"/>
	<g>
		<path d="M361 458 a14 14 90 0 1 14 14 V483 h-76 V472 a14 14 90 0 1 14 -14" fill="#a6dba0" stroke="#a6dba0" stroke-width="0"/>
		<path d="M375 483 v11 a14 14 90 0 1 -14 14 H313 a14 14 90 0 1 -14 -14 V483 H76" fill="#d9f0d3" stroke="#d9f0d3" stroke-width="0"/>
		<rect x="299" y="458" width="76" height="50" fill="none" rx="14" stroke="#5aae61" stroke-width="2"/>
		<line x1="299" y1="483" x2="375" y2="483" stroke="#5aae61" stroke-width="1"/>
		<text x="307" y="475.75" fill="#000000" font-family="Verdana" font-size="12">construire</text>
	</g>
	<text x="380" y="500" fill="#762a83" font-family="Verdana" font-size="12">0,N</text>
	<text x="268" y="500" fill="#762a83" font-family="Verdana" font-size="12">1,1</text>
</g>

<!-- Entity LEGION -->
<g>
	<g>
		<rect x="187" y="9" width="80" height="25" fill="#c2a5cf" stroke="none" stroke-width="0" opacity="1"/>
		<rect x="187" y="34" width="80" height="127" fill="#e7d4e8" stroke="none" stroke-width="0" opacity="1"/>
		<rect x="187" y="9" width="80" height="152" fill="none" stroke="#9970ab" stroke-width="2" opacity="1"/>
		<line x1="187" y1="34" x2="267" y2="34" stroke="#9970ab" stroke-width="1"/>
	</g>
	<text x="209" y="26.75" fill="#000000" font-family="Verdana" font-size="12">légion</text>
	<text x="192" y="51.8" fill="#000000" font-family="Verdana" font-size="12">code légion</text>
	<line x1="192" y1="54" x2="261" y2="54" stroke="#000000" stroke-width="1"/>
	<text x="192" y="68.8" fill="#000000" font-family="Verdana" font-size="12">nom</text>
	<text x="192" y="85.8" fill="#000000" font-family="Verdana" font-size="12">image</text>
	<text x="192" y="102.8" fill="#000000" font-family="Verdana" font-size="12">logo</text>
	<text x="192" y="119.8" fill="#000000" font-family="Verdana" font-size="12">description</text>
	<text x="192" y="136.8" fill="#000000" font-family="Verdana" font-size="12">slogan</text>
	<text x="192" y="153.8" fill="#000000" font-family="Verdana" font-size="12">bonus</text>
</g>

<!-- Entity CARTE -->
<g>
	<g>
		<rect x="9" y="186" width="158" height="25" fill="#c2a5cf" stroke="none" stroke-width="0" opacity="1"/>
		<rect x="9" y="211" width="158" height="213" fill="#e7d4e8" stroke="none" stroke-width="0" opacity="1"/>
		<rect x="9" y="186" width="158" height="238" fill="none" stroke="#9970ab" stroke-width="2" opacity="1"/>
		<line x1="9" y1="211" x2="167" y2="211" stroke="#9970ab" stroke-width="1"/>
	</g>
	<text x="73" y="203.75" fill="#000000" font-family="Verdana" font-size="12">carte</text>
	<text x="14" y="228.8" fill="#000000" font-family="Verdana" font-size="12">code carte</text>
	<line x1="14" y1="231" x2="78" y2="231" stroke="#000000" stroke-width="1"/>
	<text x="14" y="245.8" fill="#000000" font-family="Verdana" font-size="12">nom</text>
	<text x="14" y="262.8" fill="#000000" font-family="Verdana" font-size="12">description</text>
	<text x="14" y="279.8" fill="#000000" font-family="Verdana" font-size="12">niveau</text>
	<text x="14" y="296.8" fill="#000000" font-family="Verdana" font-size="12">puissance</text>
	<text x="14" y="313.8" fill="#000000" font-family="Verdana" font-size="12">défense</text>
	<text x="14" y="330.8" fill="#000000" font-family="Verdana" font-size="12">dégâts</text>
	<text x="14" y="347.8" fill="#000000" font-family="Verdana" font-size="12">points de vie</text>
	<text x="14" y="364.8" fill="#000000" font-family="Verdana" font-size="12">type</text>
	<text x="14" y="381.8" fill="#000000" font-family="Verdana" font-size="12">capacité mode classique</text>
	<text x="14" y="398.8" fill="#000000" font-family="Verdana" font-size="12">capacité mode rapide</text>
	<text x="14" y="415.8" fill="#000000" font-family="Verdana" font-size="12">rareté</text>
</g>

<!-- Entity COLLECTION -->
<g>
	<g>
		<rect x="287" y="280" width="100" height="25" fill="#c2a5cf" stroke="none" stroke-width="0" opacity="1"/>
		<rect x="287" y="305" width="100" height="25" fill="#e7d4e8" stroke="none" stroke-width="0" opacity="1"/>
		<rect x="287" y="280" width="100" height="50" fill="none" stroke="#9970ab" stroke-width="2" opacity="1"/>
		<line x1="287" y1="305" x2="387" y2="305" stroke="#9970ab" stroke-width="1"/>
	</g>
	<text x="309" y="297.75" fill="#000000" font-family="Verdana" font-size="12">collection</text>
	<text x="292" y="322.8" fill="#000000" font-family="Verdana" font-size="12">code collection</text>
	<line x1="292" y1="325" x2="382" y2="325" stroke="#000000" stroke-width="1"/>
</g>

<!-- Entity DECK -->
<g>
	<g>
		<rect x="191" y="449" width="72" height="25" fill="#c2a5cf" stroke="none" stroke-width="0" opacity="1"/>
		<rect x="191" y="474" width="72" height="43" fill="#e7d4e8" stroke="none" stroke-width="0" opacity="1"/>
		<rect x="191" y="449" width="72" height="68" fill="none" stroke="#9970ab" stroke-width="2" opacity="1"/>
		<line x1="191" y1="474" x2="263" y2="474" stroke="#9970ab" stroke-width="1"/>
	</g>
	<text x="213" y="466.75" fill="#000000" font-family="Verdana" font-size="12">deck</text>
	<text x="196" y="491.8" fill="#000000" font-family="Verdana" font-size="12">code deck</text>
	<line x1="196" y1="494" x2="257" y2="494" stroke="#000000" stroke-width="1"/>
	<text x="196" y="508.8" fill="#000000" font-family="Verdana" font-size="12">nom</text>
</g>

<!-- Entity UTILISATEUR -->
<g>
	<g>
		<rect x="407" y="432" width="104" height="25" fill="#c2a5cf" stroke="none" stroke-width="0" opacity="1"/>
		<rect x="407" y="457" width="104" height="77" fill="#e7d4e8" stroke="none" stroke-width="0" opacity="1"/>
		<rect x="407" y="432" width="104" height="102" fill="none" stroke="#9970ab" stroke-width="2" opacity="1"/>
		<line x1="407" y1="457" x2="511" y2="457" stroke="#9970ab" stroke-width="1"/>
	</g>
	<text x="429" y="449.75" fill="#000000" font-family="Verdana" font-size="12">utilisateur</text>
	<text x="412" y="474.8" fill="#000000" font-family="Verdana" font-size="12">code utilisateur</text>
	<line x1="412" y1="477" x2="506" y2="477" stroke="#000000" stroke-width="1"/>
	<text x="412" y="491.8" fill="#000000" font-family="Verdana" font-size="12">pseudo</text>
	<text x="412" y="508.8" fill="#000000" font-family="Verdana" font-size="12">email</text>
	<text x="412" y="525.8" fill="#000000" font-family="Verdana" font-size="12">mot de passe</text>
</g>
</svg>