<?xml version="1.0" encoding="utf-8"?>
<!-- Generated by Mocodo 4.2.12 -->
<svg width="1001" height="747" viewBox="0 0 1001 747" xmlns="http://www.w3.org/2000/svg">
<rect x="0" y="0" width="1001" height="747" fill="#f7f7f7" stroke="none" stroke-width="0"/>

<!-- Association COMPOSER -->
<g>
	<line x1="332" y1="77" x2="137" y2="77" stroke="#4393c3" stroke-width="2"/>
	<line x1="137" y1="204" x2="137" y2="77" stroke="#4393c3" stroke-width="2"/>
	<g>
		<path d="M160 52 a14 14 90 0 1 14 14 V77 h-74 V66 a14 14 90 0 1 14 -14" fill="#92c5de" stroke="#92c5de" stroke-width="0"/>
		<path d="M174 77 v11 a14 14 90 0 1 -14 14 H114 a14 14 90 0 1 -14 -14 V77 H74" fill="#d1e5f0" stroke="#d1e5f0" stroke-width="0"/>
		<rect x="100" y="52" width="74" height="50" fill="none" rx="14" stroke="#4393c3" stroke-width="2"/>
		<line x1="100" y1="77" x2="174" y2="77" stroke="#4393c3" stroke-width="1"/>
		<text x="108" y="69.75" fill="#000000" font-family="Verdana" font-size="12">composer</text>
	</g>
	<text x="233" y="94" fill="#b2182b" font-family="Verdana" font-size="12">1,1</text>
	<text x="142" y="154" fill="#b2182b" font-family="Verdana" font-size="12">1,N</text>
</g>

<!-- Association ATTRIBUER -->
<g>
	<line x1="471" y1="204" x2="471" y2="77" stroke="#4393c3" stroke-width="2"/>
	<line x1="332" y1="77" x2="471" y2="77" stroke="#4393c3" stroke-width="2"/>
	<g>
		<path d="M491 52 a14 14 90 0 1 14 14 V77 h-68 V66 a14 14 90 0 1 14 -14" fill="#92c5de" stroke="#92c5de" stroke-width="0"/>
		<path d="M505 77 v11 a14 14 90 0 1 -14 14 H451 a14 14 90 0 1 -14 -14 V77 H68" fill="#d1e5f0" stroke="#d1e5f0" stroke-width="0"/>
		<rect x="437" y="52" width="68" height="50" fill="none" rx="14" stroke="#4393c3" stroke-width="2"/>
		<line x1="437" y1="77" x2="505" y2="77" stroke="#4393c3" stroke-width="1"/>
		<text x="445" y="69.75" fill="#000000" font-family="Verdana" font-size="12">attribuer</text>
	</g>
	<text x="476" y="154" fill="#b2182b" font-family="Verdana" font-size="12">0,N</text>
	<text x="410" y="94" fill="#b2182b" font-family="Verdana" font-size="12">1,1</text>
</g>

<!-- Association CONTENIR -->
<g>
	<line x1="824" y1="77" x2="698" y2="77" stroke="#4393c3" stroke-width="2"/>
	<line x1="698" y1="204" x2="698" y2="77" stroke="#4393c3" stroke-width="2"/>
	<g>
		<path d="M716 52 a14 14 90 0 1 14 14 V77 h-64 V66 a14 14 90 0 1 14 -14" fill="#92c5de" stroke="#92c5de" stroke-width="0"/>
		<path d="M730 77 v11 a14 14 90 0 1 -14 14 H680 a14 14 90 0 1 -14 -14 V77 H64" fill="#d1e5f0" stroke="#d1e5f0" stroke-width="0"/>
		<rect x="666" y="52" width="64" height="50" fill="none" rx="14" stroke="#4393c3" stroke-width="2"/>
		<line x1="666" y1="77" x2="730" y2="77" stroke="#4393c3" stroke-width="1"/>
		<text x="673" y="69.75" fill="#000000" font-family="Verdana" font-size="12">contenir</text>
	</g>
	<text x="757" y="94" fill="#b2182b" font-family="Verdana" font-size="12">0,N</text>
	<text x="703" y="128" fill="#b2182b" font-family="Verdana" font-size="12">1,1</text>
</g>

<!-- Association PORTER -->
<g>
	<line x1="824" y1="77" x2="952" y2="77" stroke="#4393c3" stroke-width="2"/>
	<line x1="952" y1="204" x2="952" y2="77" stroke="#4393c3" stroke-width="2"/>
	<g>
		<path d="M964 52 a14 14 90 0 1 14 14 V77 h-52 V66 a14 14 90 0 1 14 -14" fill="#92c5de" stroke="#92c5de" stroke-width="0"/>
		<path d="M978 77 v11 a14 14 90 0 1 -14 14 H940 a14 14 90 0 1 -14 -14 V77 H52" fill="#d1e5f0" stroke="#d1e5f0" stroke-width="0"/>
		<rect x="926" y="52" width="52" height="50" fill="none" rx="14" stroke="#4393c3" stroke-width="2"/>
		<line x1="926" y1="77" x2="978" y2="77" stroke="#4393c3" stroke-width="1"/>
		<text x="933" y="69.75" fill="#000000" font-family="Verdana" font-size="12">porter</text>
	</g>
	<text x="869" y="94" fill="#b2182b" font-family="Verdana" font-size="12">1,1</text>
	<text x="957" y="162" fill="#b2182b" font-family="Verdana" font-size="12">0,N</text>
</g>

<!-- Association COMPLETER -->
<g>
	<line x1="332" y1="382" x2="332" y2="204" stroke="#4393c3" stroke-width="2"/>
	<line x1="332" y1="77" x2="332" y2="204" stroke="#4393c3" stroke-width="2"/>
	<g>
		<path d="M356 179 a14 14 90 0 1 14 14 V204 h-76 V193 a14 14 90 0 1 14 -14" fill="#92c5de" stroke="#92c5de" stroke-width="0"/>
		<path d="M370 204 v11 a14 14 90 0 1 -14 14 H308 a14 14 90 0 1 -14 -14 V204 H76" fill="#d1e5f0" stroke="#d1e5f0" stroke-width="0"/>
		<rect x="294" y="179" width="76" height="50" fill="none" rx="14" stroke="#4393c3" stroke-width="2"/>
		<line x1="294" y1="204" x2="370" y2="204" stroke="#4393c3" stroke-width="1"/>
		<text x="302" y="196.75" fill="#000000" font-family="Verdana" font-size="12">compléter</text>
	</g>
	<text x="337" y="306" fill="#b2182b" font-family="Verdana" font-size="12">0,N</text>
	<text x="337" y="145" fill="#b2182b" font-family="Verdana" font-size="12">0,N</text>
</g>

<!-- Association ETRE -->
<g>
	<line x1="698" y1="204" x2="588" y2="204" stroke="#4393c3" stroke-width="2"/>
	<line x1="588" y1="77" x2="588" y2="204" stroke="#4393c3" stroke-width="2"/>
	<g>
		<path d="M594 179 a14 14 90 0 1 14 14 V204 h-40 V193 a14 14 90 0 1 14 -14" fill="#92c5de" stroke="#92c5de" stroke-width="0"/>
		<path d="M608 204 v11 a14 14 90 0 1 -14 14 H582 a14 14 90 0 1 -14 -14 V204 H40" fill="#d1e5f0" stroke="#d1e5f0" stroke-width="0"/>
		<rect x="568" y="179" width="40" height="50" fill="none" rx="14" stroke="#4393c3" stroke-width="2"/>
		<line x1="568" y1="204" x2="608" y2="204" stroke="#4393c3" stroke-width="1"/>
		<text x="576" y="196.75" fill="#000000" font-family="Verdana" font-size="12">être</text>
	</g>
	<text x="631" y="221" fill="#b2182b" font-family="Verdana" font-size="12">1,1</text>
	<text x="593" y="128" fill="#b2182b" font-family="Verdana" font-size="12">0,N</text>
</g>

<!-- Association EVOLUER -->
<g>
	<line x1="698" y1="204" x2="824" y2="204" stroke="#4393c3" stroke-width="2"/>
	<line x1="824" y1="382" x2="824" y2="204" stroke="#4393c3" stroke-width="2"/>
	<g>
		<path d="M840 179 a14 14 90 0 1 14 14 V204 h-60 V193 a14 14 90 0 1 14 -14" fill="#92c5de" stroke="#92c5de" stroke-width="0"/>
		<path d="M854 204 v11 a14 14 90 0 1 -14 14 H808 a14 14 90 0 1 -14 -14 V204 H60" fill="#d1e5f0" stroke="#d1e5f0" stroke-width="0"/>
		<rect x="794" y="179" width="60" height="50" fill="none" rx="14" stroke="#4393c3" stroke-width="2"/>
		<line x1="794" y1="204" x2="854" y2="204" stroke="#4393c3" stroke-width="1"/>
		<text x="801" y="196.75" fill="#000000" font-family="Verdana" font-size="12">évoluer</text>
	</g>
	<text x="744" y="221" fill="#b2182b" font-family="Verdana" font-size="12">1,N</text>
	<text x="829" y="289" fill="#b2182b" font-family="Verdana" font-size="12">1,1</text>
</g>

<!-- Association OUVRIR -->
<g>
	<line x1="332" y1="382" x2="137" y2="382" stroke="#4393c3" stroke-width="2"/>
	<line x1="137" y1="543" x2="137" y2="382" stroke="#4393c3" stroke-width="2"/>
	<g>
		<path d="M148 357 a14 14 90 0 1 14 14 V382 h-50 V371 a14 14 90 0 1 14 -14" fill="#92c5de" stroke="#92c5de" stroke-width="0"/>
		<path d="M162 382 v11 a14 14 90 0 1 -14 14 H126 a14 14 90 0 1 -14 -14 V382 H50" fill="#d1e5f0" stroke="#d1e5f0" stroke-width="0"/>
		<rect x="112" y="357" width="50" height="50" fill="none" rx="14" stroke="#4393c3" stroke-width="2"/>
		<line x1="112" y1="382" x2="162" y2="382" stroke="#4393c3" stroke-width="1"/>
		<text x="119" y="374.75" fill="#000000" font-family="Verdana" font-size="12">ouvrir</text>
	</g>
	<text x="253" y="399" fill="#b2182b" font-family="Verdana" font-size="12">0,N</text>
	<text x="142" y="467" fill="#b2182b" font-family="Verdana" font-size="12">1,1</text>
</g>

<!-- Association POSSEDER -->
<g>
	<line x1="332" y1="382" x2="471" y2="382" stroke="#4393c3" stroke-width="2"/>
	<line x1="588" y1="382" x2="471" y2="382" stroke="#4393c3" stroke-width="2"/>
	<g>
		<path d="M492 357 a14 14 90 0 1 14 14 V382 h-70 V371 a14 14 90 0 1 14 -14" fill="#92c5de" stroke="#92c5de" stroke-width="0"/>
		<path d="M506 382 v11 a14 14 90 0 1 -14 14 H450 a14 14 90 0 1 -14 -14 V382 H70" fill="#d1e5f0" stroke="#d1e5f0" stroke-width="0"/>
		<rect x="436" y="357" width="70" height="50" fill="none" rx="14" stroke="#4393c3" stroke-width="2"/>
		<line x1="436" y1="382" x2="506" y2="382" stroke="#4393c3" stroke-width="1"/>
		<text x="444" y="374.75" fill="#000000" font-family="Verdana" font-size="12">posséder</text>
	</g>
	<text x="389" y="374" fill="#b2182b" font-family="Verdana" font-size="12">0,1</text>
	<text x="512" y="399" fill="#b2182b" font-family="Verdana" font-size="12">1,1</text>
</g>

<!-- Association INCLURE -->
<g>
	<line x1="588" y1="382" x2="698" y2="382" stroke="#4393c3" stroke-width="2"/>
	<line x1="824" y1="382" x2="698" y2="382" stroke="#4393c3" stroke-width="2"/>
	<g>
		<path d="M712 357 a14 14 90 0 1 14 14 V382 h-56 V371 a14 14 90 0 1 14 -14" fill="#92c5de" stroke="#92c5de" stroke-width="0"/>
		<path d="M726 382 v11 a14 14 90 0 1 -14 14 H684 a14 14 90 0 1 -14 -14 V382 H56" fill="#d1e5f0" stroke="#d1e5f0" stroke-width="0"/>
		<rect x="670" y="357" width="56" height="50" fill="none" rx="14" stroke="#4393c3" stroke-width="2"/>
		<line x1="670" y1="382" x2="726" y2="382" stroke="#4393c3" stroke-width="1"/>
		<text x="678" y="374.75" fill="#000000" font-family="Verdana" font-size="12">inclure</text>
	</g>
	<text x="643" y="399" fill="#b2182b" font-family="Verdana" font-size="12">0,N</text>
	<text x="731" y="374" fill="#b2182b" font-family="Verdana" font-size="12">0,N</text>
</g>

<!-- Association ARBORER -->
<g>
	<line x1="952" y1="204" x2="952" y2="382" stroke="#4393c3" stroke-width="2"/>
	<line x1="952" y1="543" x2="952" y2="382" stroke="#4393c3" stroke-width="2"/>
	<g>
		<path d="M968 357 a14 14 90 0 1 14 14 V382 h-60 V371 a14 14 90 0 1 14 -14" fill="#92c5de" stroke="#92c5de" stroke-width="0"/>
		<path d="M982 382 v11 a14 14 90 0 1 -14 14 H936 a14 14 90 0 1 -14 -14 V382 H60" fill="#d1e5f0" stroke="#d1e5f0" stroke-width="0"/>
		<rect x="922" y="357" width="60" height="50" fill="none" rx="14" stroke="#4393c3" stroke-width="2"/>
		<line x1="922" y1="382" x2="982" y2="382" stroke="#4393c3" stroke-width="1"/>
		<text x="930" y="374.75" fill="#000000" font-family="Verdana" font-size="12">arborer</text>
	</g>
	<text x="957" y="255" fill="#b2182b" font-family="Verdana" font-size="12">1,1</text>
	<text x="957" y="493" fill="#b2182b" font-family="Verdana" font-size="12">0,N</text>
</g>

<!-- Association EFFECTUER -->
<g>
	<line x1="332" y1="382" x2="332" y2="543" stroke="#4393c3" stroke-width="2"/>
	<line x1="332" y1="687" x2="332" y2="543" stroke="#4393c3" stroke-width="2"/>
	<g>
		<path d="M353 518 a14 14 90 0 1 14 14 V543 h-70 V532 a14 14 90 0 1 14 -14" fill="#92c5de" stroke="#92c5de" stroke-width="0"/>
		<path d="M367 543 v11 a14 14 90 0 1 -14 14 H311 a14 14 90 0 1 -14 -14 V543 H70" fill="#d1e5f0" stroke="#d1e5f0" stroke-width="0"/>
		<rect x="297" y="518" width="70" height="50" fill="none" rx="14" stroke="#4393c3" stroke-width="2"/>
		<line x1="297" y1="543" x2="367" y2="543" stroke="#4393c3" stroke-width="1"/>
		<text x="305" y="535.75" fill="#000000" font-family="Verdana" font-size="12">effectuer</text>
	</g>
	<text x="305" y="467" fill="#b2182b" font-family="Verdana" font-size="12">0,N</text>
	<text x="337" y="628" fill="#b2182b" font-family="Verdana" font-size="12">1,1</text>
</g>

<!-- Association CONSTRUIRE -->
<g>
	<line x1="332" y1="382" x2="471" y2="543" stroke="#4393c3" stroke-width="2"/>
	<line x1="588" y1="543" x2="471" y2="543" stroke="#4393c3" stroke-width="2"/>
	<g>
		<path d="M495 518 a14 14 90 0 1 14 14 V543 h-76 V532 a14 14 90 0 1 14 -14" fill="#92c5de" stroke="#92c5de" stroke-width="0"/>
		<path d="M509 543 v11 a14 14 90 0 1 -14 14 H447 a14 14 90 0 1 -14 -14 V543 H76" fill="#d1e5f0" stroke="#d1e5f0" stroke-width="0"/>
		<rect x="433" y="518" width="76" height="50" fill="none" rx="14" stroke="#4393c3" stroke-width="2"/>
		<line x1="433" y1="543" x2="509" y2="543" stroke="#4393c3" stroke-width="1"/>
		<text x="441" y="535.75" fill="#000000" font-family="Verdana" font-size="12">construire</text>
	</g>
	<text x="389" y="440.57" fill="#b2182b" font-family="Verdana" font-size="12">0,N</text>
	<text x="526" y="560" fill="#b2182b" font-family="Verdana" font-size="12">1,1</text>
</g>

<!-- Association ENGLOBER -->
<g>
	<line x1="588" y1="543" x2="698" y2="543" stroke="#4393c3" stroke-width="2"/>
	<line x1="824" y1="382" x2="698" y2="543" stroke="#4393c3" stroke-width="2"/>
	<g>
		<path d="M718 518 a14 14 90 0 1 14 14 V543 h-68 V532 a14 14 90 0 1 14 -14" fill="#92c5de" stroke="#92c5de" stroke-width="0"/>
		<path d="M732 543 v11 a14 14 90 0 1 -14 14 H678 a14 14 90 0 1 -14 -14 V543 H68" fill="#d1e5f0" stroke="#d1e5f0" stroke-width="0"/>
		<rect x="664" y="518" width="68" height="50" fill="none" rx="14" stroke="#4393c3" stroke-width="2"/>
		<line x1="664" y1="543" x2="732" y2="543" stroke="#4393c3" stroke-width="1"/>
		<text x="671" y="535.75" fill="#000000" font-family="Verdana" font-size="12">englober</text>
	</g>
	<text x="629" y="560" fill="#b2182b" font-family="Verdana" font-size="12">1,N</text>
	<text x="731" y="464.19" fill="#b2182b" font-family="Verdana" font-size="12">0,N</text>
</g>

<!-- Association MAITRISER -->
<g>
	<line x1="824" y1="382" x2="824" y2="543" stroke="#4393c3" stroke-width="2"/>
	<line x1="824" y1="687" x2="824" y2="543" stroke="#4393c3" stroke-width="2"/>
	<g>
		<path d="M845 518 a14 14 90 0 1 14 14 V543 h-70 V532 a14 14 90 0 1 14 -14" fill="#92c5de" stroke="#92c5de" stroke-width="0"/>
		<path d="M859 543 v11 a14 14 90 0 1 -14 14 H803 a14 14 90 0 1 -14 -14 V543 H70" fill="#d1e5f0" stroke="#d1e5f0" stroke-width="0"/>
		<rect x="789" y="518" width="70" height="50" fill="none" rx="14" stroke="#4393c3" stroke-width="2"/>
		<line x1="789" y1="543" x2="859" y2="543" stroke="#4393c3" stroke-width="1"/>
		<text x="797" y="535.75" fill="#000000" font-family="Verdana" font-size="12">maîtriser</text>
	</g>
	<text x="829" y="484" fill="#b2182b" font-family="Verdana" font-size="12">1,N</text>
	<text x="829" y="637" fill="#b2182b" font-family="Verdana" font-size="12">0,N</text>
</g>

<!-- Association AGREMENTER -->
<g>
	<line x1="137" y1="543" x2="137" y2="687" stroke="#4393c3" stroke-width="2"/>
	<line x1="332" y1="687" x2="137" y2="687" stroke="#4393c3" stroke-width="2"/>
	<g>
		<path d="M166 662 a14 14 90 0 1 14 14 V687 h-86 V676 a14 14 90 0 1 14 -14" fill="#92c5de" stroke="#92c5de" stroke-width="0"/>
		<path d="M180 687 v11 a14 14 90 0 1 -14 14 H108 a14 14 90 0 1 -14 -14 V687 H86" fill="#d1e5f0" stroke="#d1e5f0" stroke-width="0"/>
		<rect x="94" y="662" width="86" height="50" fill="none" rx="14" stroke="#4393c3" stroke-width="2"/>
		<line x1="94" y1="687" x2="180" y2="687" stroke="#4393c3" stroke-width="1"/>
		<text x="102" y="679.75" fill="#000000" font-family="Verdana" font-size="12">agrémenter</text>
	</g>
	<text x="142" y="628" fill="#b2182b" font-family="Verdana" font-size="12">1,N</text>
	<text x="250" y="704" fill="#b2182b" font-family="Verdana" font-size="12">0,1</text>
</g>

<!-- Association EXPOSER -->
<g>
	<line x1="824" y1="687" x2="952" y2="687" stroke="#4393c3" stroke-width="2"/>
	<line x1="952" y1="543" x2="952" y2="687" stroke="#4393c3" stroke-width="2"/>
	<g>
		<path d="M970 662 a14 14 90 0 1 14 14 V687 h-64 V676 a14 14 90 0 1 14 -14" fill="#92c5de" stroke="#92c5de" stroke-width="0"/>
		<path d="M984 687 v11 a14 14 90 0 1 -14 14 H934 a14 14 90 0 1 -14 -14 V687 H64" fill="#d1e5f0" stroke="#d1e5f0" stroke-width="0"/>
		<rect x="920" y="662" width="64" height="50" fill="none" rx="14" stroke="#4393c3" stroke-width="2"/>
		<line x1="920" y1="687" x2="984" y2="687" stroke="#4393c3" stroke-width="1"/>
		<text x="928" y="679.75" fill="#000000" font-family="Verdana" font-size="12">exposer</text>
	</g>
	<text x="876" y="704" fill="#b2182b" font-family="Verdana" font-size="12">1,1</text>
	<text x="957" y="602" fill="#b2182b" font-family="Verdana" font-size="12">0,N</text>
</g>

<!-- Entity ETAPE_DE_MISSION -->
<g>
	<g>
		<rect x="259" y="26" width="146" height="25" fill="#f4a582" stroke="none" stroke-width="0" opacity="1"/>
		<rect x="259" y="51" width="146" height="77" fill="#fddbc7" stroke="none" stroke-width="0" opacity="1"/>
		<rect x="259" y="26" width="146" height="102" fill="none" stroke="#d6604d" stroke-width="2" opacity="1"/>
		<line x1="259" y1="51" x2="405" y2="51" stroke="#d6604d" stroke-width="1"/>
	</g>
	<text x="281" y="43.75" fill="#000000" font-family="Verdana" font-size="12">étape de mission</text>
	<text x="264" y="68.8" fill="#000000" font-family="Verdana" font-size="12">code étape de mission</text>
	<line x1="264" y1="71" x2="400" y2="71" stroke="#000000" stroke-width="1"/>
	<text x="264" y="85.8" fill="#000000" font-family="Verdana" font-size="12">description</text>
	<text x="264" y="102.8" fill="#000000" font-family="Verdana" font-size="12">objectif</text>
	<text x="264" y="119.8" fill="#000000" font-family="Verdana" font-size="12">ordre</text>
</g>

<!-- Entity RARETE -->
<g>
	<g>
		<rect x="548" y="43" width="80" height="25" fill="#f4a582" stroke="none" stroke-width="0" opacity="1"/>
		<rect x="548" y="68" width="80" height="43" fill="#fddbc7" stroke="none" stroke-width="0" opacity="1"/>
		<rect x="548" y="43" width="80" height="68" fill="none" stroke="#d6604d" stroke-width="2" opacity="1"/>
		<line x1="548" y1="68" x2="628" y2="68" stroke="#d6604d" stroke-width="1"/>
	</g>
	<text x="569" y="60.75" fill="#000000" font-family="Verdana" font-size="12">rareté</text>
	<text x="553" y="85.8" fill="#000000" font-family="Verdana" font-size="12">code rareté</text>
	<line x1="553" y1="88" x2="623" y2="88" stroke="#000000" stroke-width="1"/>
	<text x="553" y="102.8" fill="#000000" font-family="Verdana" font-size="12">nom</text>
</g>

<!-- Entity LEGION -->
<g>
	<g>
		<rect x="784" y="9" width="80" height="25" fill="#f4a582" stroke="none" stroke-width="0" opacity="1"/>
		<rect x="784" y="34" width="80" height="111" fill="#fddbc7" stroke="none" stroke-width="0" opacity="1"/>
		<rect x="784" y="9" width="80" height="136" fill="none" stroke="#d6604d" stroke-width="2" opacity="1"/>
		<line x1="784" y1="34" x2="864" y2="34" stroke="#d6604d" stroke-width="1"/>
	</g>
	<text x="806" y="26.75" fill="#000000" font-family="Verdana" font-size="12">légion</text>
	<text x="789" y="51.8" fill="#000000" font-family="Verdana" font-size="12">code légion</text>
	<line x1="789" y1="54" x2="858" y2="54" stroke="#000000" stroke-width="1"/>
	<text x="789" y="68.8" fill="#000000" font-family="Verdana" font-size="12">nom</text>
	<text x="789" y="85.8" fill="#000000" font-family="Verdana" font-size="12">image</text>
	<text x="789" y="102.8" fill="#000000" font-family="Verdana" font-size="12">logo</text>
	<text x="789" y="119.8" fill="#000000" font-family="Verdana" font-size="12">description</text>
	<text x="789" y="136.8" fill="#000000" font-family="Verdana" font-size="12">slogan</text>
</g>

<!-- Entity MISSION -->
<g>
	<g>
		<rect x="92" y="162" width="90" height="25" fill="#f4a582" stroke="none" stroke-width="0" opacity="1"/>
		<rect x="92" y="187" width="90" height="59" fill="#fddbc7" stroke="none" stroke-width="0" opacity="1"/>
		<rect x="92" y="162" width="90" height="84" fill="none" stroke="#d6604d" stroke-width="2" opacity="1"/>
		<line x1="92" y1="187" x2="182" y2="187" stroke="#d6604d" stroke-width="1"/>
	</g>
	<text x="114" y="179.75" fill="#000000" font-family="Verdana" font-size="12">mission</text>
	<text x="97" y="204.8" fill="#000000" font-family="Verdana" font-size="12">code mission</text>
	<line x1="97" y1="207" x2="176" y2="207" stroke="#000000" stroke-width="1"/>
	<text x="97" y="221.8" fill="#000000" font-family="Verdana" font-size="12">nom</text>
</g>

<!-- Entity RECOMPENSE -->
<g>
	<g>
		<rect x="412" y="162" width="118" height="25" fill="#f4a582" stroke="none" stroke-width="0" opacity="1"/>
		<rect x="412" y="187" width="118" height="59" fill="#fddbc7" stroke="none" stroke-width="0" opacity="1"/>
		<rect x="412" y="162" width="118" height="84" fill="none" stroke="#d6604d" stroke-width="2" opacity="1"/>
		<line x1="412" y1="187" x2="530" y2="187" stroke="#d6604d" stroke-width="1"/>
	</g>
	<text x="434" y="179.75" fill="#000000" font-family="Verdana" font-size="12">récompense</text>
	<text x="417" y="204.8" fill="#000000" font-family="Verdana" font-size="12">code récompense</text>
	<line x1="417" y1="207" x2="524" y2="207" stroke="#000000" stroke-width="1"/>
	<text x="417" y="221.8" fill="#000000" font-family="Verdana" font-size="12">type</text>
	<text x="417" y="238.8" fill="#000000" font-family="Verdana" font-size="12">valeur</text>
</g>

<!-- Entity CARTE -->
<g>
	<g>
		<rect x="657" y="136" width="82" height="25" fill="#f4a582" stroke="none" stroke-width="0" opacity="1"/>
		<rect x="657" y="161" width="82" height="111" fill="#fddbc7" stroke="none" stroke-width="0" opacity="1"/>
		<rect x="657" y="136" width="82" height="136" fill="none" stroke="#d6604d" stroke-width="2" opacity="1"/>
		<line x1="657" y1="161" x2="739" y2="161" stroke="#d6604d" stroke-width="1"/>
	</g>
	<text x="683" y="153.75" fill="#000000" font-family="Verdana" font-size="12">carte</text>
	<text x="662" y="178.8" fill="#000000" font-family="Verdana" font-size="12">code carte</text>
	<line x1="662" y1="181" x2="726" y2="181" stroke="#000000" stroke-width="1"/>
	<text x="662" y="195.8" fill="#000000" font-family="Verdana" font-size="12">nom</text>
	<text x="662" y="212.8" fill="#000000" font-family="Verdana" font-size="12">description</text>
	<text x="662" y="229.8" fill="#000000" font-family="Verdana" font-size="12">type</text>
	<text x="662" y="246.8" fill="#000000" font-family="Verdana" font-size="12">experience</text>
	<text x="662" y="263.8" fill="#000000" font-family="Verdana" font-size="12">niveau max</text>
</g>

<!-- Entity BONUS -->
<g>
	<g>
		<rect x="912" y="170" width="80" height="25" fill="#f4a582" stroke="none" stroke-width="0" opacity="1"/>
		<rect x="912" y="195" width="80" height="43" fill="#fddbc7" stroke="none" stroke-width="0" opacity="1"/>
		<rect x="912" y="170" width="80" height="68" fill="none" stroke="#d6604d" stroke-width="2" opacity="1"/>
		<line x1="912" y1="195" x2="992" y2="195" stroke="#d6604d" stroke-width="1"/>
	</g>
	<text x="934" y="187.75" fill="#000000" font-family="Verdana" font-size="12">bonus</text>
	<text x="917" y="212.8" fill="#000000" font-family="Verdana" font-size="12">code bonus</text>
	<line x1="917" y1="215" x2="987" y2="215" stroke="#000000" stroke-width="1"/>
	<text x="917" y="229.8" fill="#000000" font-family="Verdana" font-size="12">mode</text>
</g>

<!-- Entity UTILISATEUR -->
<g>
	<g>
		<rect x="280" y="314" width="104" height="25" fill="#f4a582" stroke="none" stroke-width="0" opacity="1"/>
		<rect x="280" y="339" width="104" height="111" fill="#fddbc7" stroke="none" stroke-width="0" opacity="1"/>
		<rect x="280" y="314" width="104" height="136" fill="none" stroke="#d6604d" stroke-width="2" opacity="1"/>
		<line x1="280" y1="339" x2="384" y2="339" stroke="#d6604d" stroke-width="1"/>
	</g>
	<text x="302" y="331.75" fill="#000000" font-family="Verdana" font-size="12">utilisateur</text>
	<text x="285" y="356.8" fill="#000000" font-family="Verdana" font-size="12">code utilisateur</text>
	<line x1="285" y1="359" x2="379" y2="359" stroke="#000000" stroke-width="1"/>
	<text x="285" y="373.8" fill="#000000" font-family="Verdana" font-size="12">pseudo</text>
	<text x="285" y="390.8" fill="#000000" font-family="Verdana" font-size="12">email</text>
	<text x="285" y="407.8" fill="#000000" font-family="Verdana" font-size="12">mot de passe</text>
	<text x="285" y="424.8" fill="#000000" font-family="Verdana" font-size="12">expérience</text>
	<text x="285" y="441.8" fill="#000000" font-family="Verdana" font-size="12">tokens</text>
</g>

<!-- Entity COLLECTION -->
<g>
	<g>
		<rect x="538" y="357" width="100" height="25" fill="#f4a582" stroke="none" stroke-width="0" opacity="1"/>
		<rect x="538" y="382" width="100" height="25" fill="#fddbc7" stroke="none" stroke-width="0" opacity="1"/>
		<rect x="538" y="357" width="100" height="50" fill="none" stroke="#d6604d" stroke-width="2" opacity="1"/>
		<line x1="538" y1="382" x2="638" y2="382" stroke="#d6604d" stroke-width="1"/>
	</g>
	<text x="560" y="374.75" fill="#000000" font-family="Verdana" font-size="12">collection</text>
	<text x="543" y="399.8" fill="#000000" font-family="Verdana" font-size="12">code collection</text>
	<line x1="543" y1="402" x2="633" y2="402" stroke="#000000" stroke-width="1"/>
</g>

<!-- Entity EVOLUTION -->
<g>
	<g>
		<rect x="758" y="297" width="132" height="25" fill="#f4a582" stroke="none" stroke-width="0" opacity="1"/>
		<rect x="758" y="322" width="132" height="145" fill="#fddbc7" stroke="none" stroke-width="0" opacity="1"/>
		<rect x="758" y="297" width="132" height="170" fill="none" stroke="#d6604d" stroke-width="2" opacity="1"/>
		<line x1="758" y1="322" x2="890" y2="322" stroke="#d6604d" stroke-width="1"/>
	</g>
	<text x="796" y="314.75" fill="#000000" font-family="Verdana" font-size="12">évolution</text>
	<text x="763" y="339.8" fill="#000000" font-family="Verdana" font-size="12">code évolution</text>
	<line x1="763" y1="342" x2="852" y2="342" stroke="#000000" stroke-width="1"/>
	<text x="763" y="356.8" fill="#000000" font-family="Verdana" font-size="12">niveau</text>
	<text x="763" y="373.8" fill="#000000" font-family="Verdana" font-size="12">expérience recquise</text>
	<text x="763" y="390.8" fill="#000000" font-family="Verdana" font-size="12">puissance</text>
	<text x="763" y="407.8" fill="#000000" font-family="Verdana" font-size="12">défense</text>
	<text x="763" y="424.8" fill="#000000" font-family="Verdana" font-size="12">dégâts</text>
	<text x="763" y="441.8" fill="#000000" font-family="Verdana" font-size="12">points de vie</text>
	<text x="763" y="458.8" fill="#000000" font-family="Verdana" font-size="12">image</text>
</g>

<!-- Entity BOOSTER -->
<g>
	<g>
		<rect x="9" y="475" width="256" height="25" fill="#f4a582" stroke="none" stroke-width="0" opacity="1"/>
		<rect x="9" y="500" width="256" height="111" fill="#fddbc7" stroke="none" stroke-width="0" opacity="1"/>
		<rect x="9" y="475" width="256" height="136" fill="none" stroke="#d6604d" stroke-width="2" opacity="1"/>
		<line x1="9" y1="500" x2="265" y2="500" stroke="#d6604d" stroke-width="1"/>
	</g>
	<text x="114" y="492.75" fill="#000000" font-family="Verdana" font-size="12">booster</text>
	<text x="14" y="517.8" fill="#000000" font-family="Verdana" font-size="12">code booster</text>
	<line x1="14" y1="520" x2="93" y2="520" stroke="#000000" stroke-width="1"/>
	<text x="14" y="534.8" fill="#000000" font-family="Verdana" font-size="12">prix</text>
	<text x="14" y="551.8" fill="#000000" font-family="Verdana" font-size="12">pourcentage obtention carte commune</text>
	<text x="14" y="568.8" fill="#000000" font-family="Verdana" font-size="12">pourcentage obtention carte inhabituelle</text>
	<text x="14" y="585.8" fill="#000000" font-family="Verdana" font-size="12">pourcentage obtention carte rare</text>
	<text x="14" y="602.8" fill="#000000" font-family="Verdana" font-size="12">pourcentage obtention carte légendaire</text>
</g>

<!-- Entity DECK -->
<g>
	<g>
		<rect x="552" y="509" width="72" height="25" fill="#f4a582" stroke="none" stroke-width="0" opacity="1"/>
		<rect x="552" y="534" width="72" height="43" fill="#fddbc7" stroke="none" stroke-width="0" opacity="1"/>
		<rect x="552" y="509" width="72" height="68" fill="none" stroke="#d6604d" stroke-width="2" opacity="1"/>
		<line x1="552" y1="534" x2="624" y2="534" stroke="#d6604d" stroke-width="1"/>
	</g>
	<text x="574" y="526.75" fill="#000000" font-family="Verdana" font-size="12">deck</text>
	<text x="557" y="551.8" fill="#000000" font-family="Verdana" font-size="12">code deck</text>
	<line x1="557" y1="554" x2="618" y2="554" stroke="#000000" stroke-width="1"/>
	<text x="557" y="568.8" fill="#000000" font-family="Verdana" font-size="12">nom</text>
</g>

<!-- Entity EFFET -->
<g>
	<g>
		<rect x="913" y="501" width="78" height="25" fill="#f4a582" stroke="none" stroke-width="0" opacity="1"/>
		<rect x="913" y="526" width="78" height="59" fill="#fddbc7" stroke="none" stroke-width="0" opacity="1"/>
		<rect x="913" y="501" width="78" height="84" fill="none" stroke="#d6604d" stroke-width="2" opacity="1"/>
		<line x1="913" y1="526" x2="991" y2="526" stroke="#d6604d" stroke-width="1"/>
	</g>
	<text x="938" y="518.75" fill="#000000" font-family="Verdana" font-size="12">effet</text>
	<text x="918" y="543.8" fill="#000000" font-family="Verdana" font-size="12">code effet</text>
	<line x1="918" y1="546" x2="979" y2="546" stroke="#000000" stroke-width="1"/>
	<text x="918" y="560.8" fill="#000000" font-family="Verdana" font-size="12">code</text>
	<text x="918" y="577.8" fill="#000000" font-family="Verdana" font-size="12">description</text>
</g>

<!-- Entity TRANSACTION -->
<g>
	<g>
		<rect x="276" y="636" width="112" height="25" fill="#f4a582" stroke="none" stroke-width="0" opacity="1"/>
		<rect x="276" y="661" width="112" height="77" fill="#fddbc7" stroke="none" stroke-width="0" opacity="1"/>
		<rect x="276" y="636" width="112" height="102" fill="none" stroke="#d6604d" stroke-width="2" opacity="1"/>
		<line x1="276" y1="661" x2="388" y2="661" stroke="#d6604d" stroke-width="1"/>
	</g>
	<text x="298" y="653.75" fill="#000000" font-family="Verdana" font-size="12">transaction</text>
	<text x="281" y="678.8" fill="#000000" font-family="Verdana" font-size="12">code transaction</text>
	<line x1="281" y1="681" x2="382" y2="681" stroke="#000000" stroke-width="1"/>
	<text x="281" y="695.8" fill="#000000" font-family="Verdana" font-size="12">type</text>
	<text x="281" y="712.8" fill="#000000" font-family="Verdana" font-size="12">montant</text>
	<text x="281" y="729.8" fill="#000000" font-family="Verdana" font-size="12">description</text>
</g>

<!-- Entity CAPACITE -->
<g>
	<g>
		<rect x="777" y="645" width="94" height="25" fill="#f4a582" stroke="none" stroke-width="0" opacity="1"/>
		<rect x="777" y="670" width="94" height="59" fill="#fddbc7" stroke="none" stroke-width="0" opacity="1"/>
		<rect x="777" y="645" width="94" height="84" fill="none" stroke="#d6604d" stroke-width="2" opacity="1"/>
		<line x1="777" y1="670" x2="871" y2="670" stroke="#d6604d" stroke-width="1"/>
	</g>
	<text x="799" y="662.75" fill="#000000" font-family="Verdana" font-size="12">capacité</text>
	<text x="782" y="687.8" fill="#000000" font-family="Verdana" font-size="12">code capacité</text>
	<line x1="782" y1="690" x2="865" y2="690" stroke="#000000" stroke-width="1"/>
	<text x="782" y="704.8" fill="#000000" font-family="Verdana" font-size="12">nom</text>
	<text x="782" y="721.8" fill="#000000" font-family="Verdana" font-size="12">mode</text>
</g>
</svg>