<?xml version="1.0" encoding="utf-8"?>
<!-- Generated by Mocodo 4.2.12 -->
<svg width="561" height="602" viewBox="0 0 561 602" xmlns="http://www.w3.org/2000/svg">
<rect x="0" y="0" width="561" height="602" fill="#f7f7f7" stroke="none" stroke-width="0"/>

<!-- Association PORTER -->
<g>
	<line x1="160" y1="187" x2="160" y2="60" stroke="#de77ae" stroke-width="2"/>
	<line x1="49" y1="60" x2="160" y2="60" stroke="#de77ae" stroke-width="2"/>
	<g>
		<path d="M172 35 a14 14 90 0 1 14 14 V60 h-52 V49 a14 14 90 0 1 14 -14" fill="#f1b6da" stroke="#f1b6da" stroke-width="0"/>
		<path d="M186 60 v11 a14 14 90 0 1 -14 14 H148 a14 14 90 0 1 -14 -14 V60 H52" fill="#fde0ef" stroke="#fde0ef" stroke-width="0"/>
		<rect x="134" y="35" width="52" height="50" fill="none" rx="14" stroke="#de77ae" stroke-width="2"/>
		<line x1="134" y1="60" x2="186" y2="60" stroke="#de77ae" stroke-width="1"/>
		<text x="141" y="52.75" fill="#000000" font-family="Verdana" font-size="12">porter</text>
	</g>
	<text x="165" y="111" fill="#4d9221" font-family="Verdana" font-size="12">1,1</text>
	<text x="94" y="77" fill="#4d9221" font-family="Verdana" font-size="12">0,N</text>
</g>

<!-- Association CONSTRUIRE -->
<g>
	<line x1="500" y1="60" x2="378" y2="60" stroke="#de77ae" stroke-width="2"/>
	<line x1="378" y1="187" x2="378" y2="60" stroke="#de77ae" stroke-width="2"/>
	<g>
		<path d="M402 35 a14 14 90 0 1 14 14 V60 h-76 V49 a14 14 90 0 1 14 -14" fill="#f1b6da" stroke="#f1b6da" stroke-width="0"/>
		<path d="M416 60 v11 a14 14 90 0 1 -14 14 H354 a14 14 90 0 1 -14 -14 V60 H76" fill="#fde0ef" stroke="#fde0ef" stroke-width="0"/>
		<rect x="340" y="35" width="76" height="50" fill="none" rx="14" stroke="#de77ae" stroke-width="2"/>
		<line x1="340" y1="60" x2="416" y2="60" stroke="#de77ae" stroke-width="1"/>
		<text x="348" y="52.75" fill="#000000" font-family="Verdana" font-size="12">construire</text>
	</g>
	<text x="421" y="77" fill="#4d9221" font-family="Verdana" font-size="12">0,N</text>
	<text x="383" y="145" fill="#4d9221" font-family="Verdana" font-size="12">1,1</text>
</g>

<!-- Association ARBORER -->
<g>
	<line x1="49" y1="60" x2="49" y2="187" stroke="#de77ae" stroke-width="2"/>
	<line x1="49" y1="382" x2="49" y2="187" stroke="#de77ae" stroke-width="2"/>
	<g>
		<path d="M65 162 a14 14 90 0 1 14 14 V187 h-60 V176 a14 14 90 0 1 14 -14" fill="#f1b6da" stroke="#f1b6da" stroke-width="0"/>
		<path d="M79 187 v11 a14 14 90 0 1 -14 14 H33 a14 14 90 0 1 -14 -14 V187 H60" fill="#fde0ef" stroke="#fde0ef" stroke-width="0"/>
		<rect x="19" y="162" width="60" height="50" fill="none" rx="14" stroke="#de77ae" stroke-width="2"/>
		<line x1="19" y1="187" x2="79" y2="187" stroke="#de77ae" stroke-width="1"/>
		<text x="27" y="179.75" fill="#000000" font-family="Verdana" font-size="12">arborer</text>
	</g>
	<text x="54" y="111" fill="#4d9221" font-family="Verdana" font-size="12">1,1</text>
	<text x="54" y="332" fill="#4d9221" font-family="Verdana" font-size="12">0,N</text>
</g>

<!-- Association ENGLOBER -->
<g>
	<line x1="378" y1="187" x2="274" y2="187" stroke="#de77ae" stroke-width="2"/>
	<line x1="274" y1="382" x2="274" y2="187" stroke="#de77ae" stroke-width="2"/>
	<g>
		<path d="M294 162 a14 14 90 0 1 14 14 V187 h-68 V176 a14 14 90 0 1 14 -14" fill="#f1b6da" stroke="#f1b6da" stroke-width="0"/>
		<path d="M308 187 v11 a14 14 90 0 1 -14 14 H254 a14 14 90 0 1 -14 -14 V187 H68" fill="#fde0ef" stroke="#fde0ef" stroke-width="0"/>
		<rect x="240" y="162" width="68" height="50" fill="none" rx="14" stroke="#de77ae" stroke-width="2"/>
		<line x1="240" y1="187" x2="308" y2="187" stroke="#de77ae" stroke-width="1"/>
		<text x="247" y="179.75" fill="#000000" font-family="Verdana" font-size="12">englober</text>
	</g>
	<text x="315" y="204" fill="#4d9221" font-family="Verdana" font-size="12">1,N</text>
	<text x="279" y="272" fill="#4d9221" font-family="Verdana" font-size="12">0,N</text>
</g>

<!-- Association POSSEDER -->
<g>
	<line x1="500" y1="60" x2="500" y2="187" stroke="#de77ae" stroke-width="2"/>
	<line x1="500" y1="382" x2="500" y2="187" stroke="#de77ae" stroke-width="2"/>
	<g>
		<path d="M521 162 a14 14 90 0 1 14 14 V187 h-70 V176 a14 14 90 0 1 14 -14" fill="#f1b6da" stroke="#f1b6da" stroke-width="0"/>
		<path d="M535 187 v11 a14 14 90 0 1 -14 14 H479 a14 14 90 0 1 -14 -14 V187 H70" fill="#fde0ef" stroke="#fde0ef" stroke-width="0"/>
		<rect x="465" y="162" width="70" height="50" fill="none" rx="14" stroke="#de77ae" stroke-width="2"/>
		<line x1="465" y1="187" x2="535" y2="187" stroke="#de77ae" stroke-width="1"/>
		<text x="473" y="179.75" fill="#000000" font-family="Verdana" font-size="12">posséder</text>
	</g>
	<text x="505" y="128" fill="#4d9221" font-family="Verdana" font-size="12">0,1</text>
	<text x="505" y="349" fill="#4d9221" font-family="Verdana" font-size="12">1,1</text>
</g>

<!-- Association CONTENIR -->
<g>
	<line x1="160" y1="187" x2="160" y2="382" stroke="#de77ae" stroke-width="2"/>
	<line x1="274" y1="382" x2="160" y2="382" stroke="#de77ae" stroke-width="2"/>
	<g>
		<path d="M178 357 a14 14 90 0 1 14 14 V382 h-64 V371 a14 14 90 0 1 14 -14" fill="#f1b6da" stroke="#f1b6da" stroke-width="0"/>
		<path d="M192 382 v11 a14 14 90 0 1 -14 14 H142 a14 14 90 0 1 -14 -14 V382 H64" fill="#fde0ef" stroke="#fde0ef" stroke-width="0"/>
		<rect x="128" y="357" width="64" height="50" fill="none" rx="14" stroke="#de77ae" stroke-width="2"/>
		<line x1="128" y1="382" x2="192" y2="382" stroke="#de77ae" stroke-width="1"/>
		<text x="135" y="374.75" fill="#000000" font-family="Verdana" font-size="12">contenir</text>
	</g>
	<text x="165" y="272" fill="#4d9221" font-family="Verdana" font-size="12">0,N</text>
	<text x="204" y="399" fill="#4d9221" font-family="Verdana" font-size="12">1,1</text>
</g>

<!-- Association INCLURE -->
<g>
	<line x1="500" y1="382" x2="378" y2="382" stroke="#de77ae" stroke-width="2"/>
	<line x1="274" y1="382" x2="378" y2="382" stroke="#de77ae" stroke-width="2"/>
	<g>
		<path d="M392 357 a14 14 90 0 1 14 14 V382 h-56 V371 a14 14 90 0 1 14 -14" fill="#f1b6da" stroke="#f1b6da" stroke-width="0"/>
		<path d="M406 382 v11 a14 14 90 0 1 -14 14 H364 a14 14 90 0 1 -14 -14 V382 H56" fill="#fde0ef" stroke="#fde0ef" stroke-width="0"/>
		<rect x="350" y="357" width="56" height="50" fill="none" rx="14" stroke="#de77ae" stroke-width="2"/>
		<line x1="350" y1="382" x2="406" y2="382" stroke="#de77ae" stroke-width="1"/>
		<text x="358" y="374.75" fill="#000000" font-family="Verdana" font-size="12">inclure</text>
	</g>
	<text x="423" y="399" fill="#4d9221" font-family="Verdana" font-size="12">0,N</text>
	<text x="323" y="399" fill="#4d9221" font-family="Verdana" font-size="12">0,N</text>
</g>

<!-- Association EXPOSER -->
<g>
	<line x1="160" y1="551" x2="49" y2="551" stroke="#de77ae" stroke-width="2"/>
	<line x1="49" y1="382" x2="49" y2="551" stroke="#de77ae" stroke-width="2"/>
	<g>
		<path d="M67 526 a14 14 90 0 1 14 14 V551 h-64 V540 a14 14 90 0 1 14 -14" fill="#f1b6da" stroke="#f1b6da" stroke-width="0"/>
		<path d="M81 551 v11 a14 14 90 0 1 -14 14 H31 a14 14 90 0 1 -14 -14 V551 H64" fill="#fde0ef" stroke="#fde0ef" stroke-width="0"/>
		<rect x="17" y="526" width="64" height="50" fill="none" rx="14" stroke="#de77ae" stroke-width="2"/>
		<line x1="17" y1="551" x2="81" y2="551" stroke="#de77ae" stroke-width="1"/>
		<text x="25" y="543.75" fill="#000000" font-family="Verdana" font-size="12">exposer</text>
	</g>
	<text x="87" y="568" fill="#4d9221" font-family="Verdana" font-size="12">1,1</text>
	<text x="54" y="441" fill="#4d9221" font-family="Verdana" font-size="12">0,N</text>
</g>

<!-- Association MAITRISER -->
<g>
	<line x1="274" y1="382" x2="274" y2="551" stroke="#de77ae" stroke-width="2"/>
	<line x1="160" y1="551" x2="274" y2="551" stroke="#de77ae" stroke-width="2"/>
	<g>
		<path d="M295 526 a14 14 90 0 1 14 14 V551 h-70 V540 a14 14 90 0 1 14 -14" fill="#f1b6da" stroke="#f1b6da" stroke-width="0"/>
		<path d="M309 551 v11 a14 14 90 0 1 -14 14 H253 a14 14 90 0 1 -14 -14 V551 H70" fill="#fde0ef" stroke="#fde0ef" stroke-width="0"/>
		<rect x="239" y="526" width="70" height="50" fill="none" rx="14" stroke="#de77ae" stroke-width="2"/>
		<line x1="239" y1="551" x2="309" y2="551" stroke="#de77ae" stroke-width="1"/>
		<text x="247" y="543.75" fill="#000000" font-family="Verdana" font-size="12">maîtriser</text>
	</g>
	<text x="279" y="501" fill="#4d9221" font-family="Verdana" font-size="12">1,N</text>
	<text x="212" y="568" fill="#4d9221" font-family="Verdana" font-size="12">0,N</text>
</g>

<!-- Entity BONUS -->
<g>
	<g>
		<rect x="9" y="26" width="80" height="25" fill="#b8e186" stroke="none" stroke-width="0" opacity="1"/>
		<rect x="9" y="51" width="80" height="43" fill="#e6f5d0" stroke="none" stroke-width="0" opacity="1"/>
		<rect x="9" y="26" width="80" height="68" fill="none" stroke="#7fbc41" stroke-width="2" opacity="1"/>
		<line x1="9" y1="51" x2="89" y2="51" stroke="#7fbc41" stroke-width="1"/>
	</g>
	<text x="31" y="43.75" fill="#000000" font-family="Verdana" font-size="12">bonus</text>
	<text x="14" y="68.8" fill="#000000" font-family="Verdana" font-size="12">code bonus</text>
	<line x1="14" y1="71" x2="84" y2="71" stroke="#000000" stroke-width="1"/>
	<text x="14" y="85.8" fill="#000000" font-family="Verdana" font-size="12">mode</text>
</g>

<!-- Entity UTILISATEUR -->
<g>
	<g>
		<rect x="448" y="9" width="104" height="25" fill="#b8e186" stroke="none" stroke-width="0" opacity="1"/>
		<rect x="448" y="34" width="104" height="77" fill="#e6f5d0" stroke="none" stroke-width="0" opacity="1"/>
		<rect x="448" y="9" width="104" height="102" fill="none" stroke="#7fbc41" stroke-width="2" opacity="1"/>
		<line x1="448" y1="34" x2="552" y2="34" stroke="#7fbc41" stroke-width="1"/>
	</g>
	<text x="470" y="26.75" fill="#000000" font-family="Verdana" font-size="12">utilisateur</text>
	<text x="453" y="51.8" fill="#000000" font-family="Verdana" font-size="12">code utilisateur</text>
	<line x1="453" y1="54" x2="547" y2="54" stroke="#000000" stroke-width="1"/>
	<text x="453" y="68.8" fill="#000000" font-family="Verdana" font-size="12">pseudo</text>
	<text x="453" y="85.8" fill="#000000" font-family="Verdana" font-size="12">email</text>
	<text x="453" y="102.8" fill="#000000" font-family="Verdana" font-size="12">mot de passe</text>
</g>

<!-- Entity LEGION -->
<g>
	<g>
		<rect x="120" y="119" width="80" height="25" fill="#b8e186" stroke="none" stroke-width="0" opacity="1"/>
		<rect x="120" y="144" width="80" height="111" fill="#e6f5d0" stroke="none" stroke-width="0" opacity="1"/>
		<rect x="120" y="119" width="80" height="136" fill="none" stroke="#7fbc41" stroke-width="2" opacity="1"/>
		<line x1="120" y1="144" x2="200" y2="144" stroke="#7fbc41" stroke-width="1"/>
	</g>
	<text x="142" y="136.75" fill="#000000" font-family="Verdana" font-size="12">légion</text>
	<text x="125" y="161.8" fill="#000000" font-family="Verdana" font-size="12">code légion</text>
	<line x1="125" y1="164" x2="194" y2="164" stroke="#000000" stroke-width="1"/>
	<text x="125" y="178.8" fill="#000000" font-family="Verdana" font-size="12">nom</text>
	<text x="125" y="195.8" fill="#000000" font-family="Verdana" font-size="12">image</text>
	<text x="125" y="212.8" fill="#000000" font-family="Verdana" font-size="12">logo</text>
	<text x="125" y="229.8" fill="#000000" font-family="Verdana" font-size="12">description</text>
	<text x="125" y="246.8" fill="#000000" font-family="Verdana" font-size="12">slogan</text>
</g>

<!-- Entity DECK -->
<g>
	<g>
		<rect x="342" y="153" width="72" height="25" fill="#b8e186" stroke="none" stroke-width="0" opacity="1"/>
		<rect x="342" y="178" width="72" height="43" fill="#e6f5d0" stroke="none" stroke-width="0" opacity="1"/>
		<rect x="342" y="153" width="72" height="68" fill="none" stroke="#7fbc41" stroke-width="2" opacity="1"/>
		<line x1="342" y1="178" x2="414" y2="178" stroke="#7fbc41" stroke-width="1"/>
	</g>
	<text x="364" y="170.75" fill="#000000" font-family="Verdana" font-size="12">deck</text>
	<text x="347" y="195.8" fill="#000000" font-family="Verdana" font-size="12">code deck</text>
	<line x1="347" y1="198" x2="408" y2="198" stroke="#000000" stroke-width="1"/>
	<text x="347" y="212.8" fill="#000000" font-family="Verdana" font-size="12">nom</text>
</g>

<!-- Entity EFFET -->
<g>
	<g>
		<rect x="10" y="340" width="78" height="25" fill="#b8e186" stroke="none" stroke-width="0" opacity="1"/>
		<rect x="10" y="365" width="78" height="59" fill="#e6f5d0" stroke="none" stroke-width="0" opacity="1"/>
		<rect x="10" y="340" width="78" height="84" fill="none" stroke="#7fbc41" stroke-width="2" opacity="1"/>
		<line x1="10" y1="365" x2="88" y2="365" stroke="#7fbc41" stroke-width="1"/>
	</g>
	<text x="35" y="357.75" fill="#000000" font-family="Verdana" font-size="12">effet</text>
	<text x="15" y="382.8" fill="#000000" font-family="Verdana" font-size="12">code effet</text>
	<line x1="15" y1="385" x2="76" y2="385" stroke="#000000" stroke-width="1"/>
	<text x="15" y="399.8" fill="#000000" font-family="Verdana" font-size="12">code</text>
	<text x="15" y="416.8" fill="#000000" font-family="Verdana" font-size="12">description</text>
</g>

<!-- Entity CARTE -->
<g>
	<g>
		<rect x="230" y="280" width="88" height="25" fill="#b8e186" stroke="none" stroke-width="0" opacity="1"/>
		<rect x="230" y="305" width="88" height="179" fill="#e6f5d0" stroke="none" stroke-width="0" opacity="1"/>
		<rect x="230" y="280" width="88" height="204" fill="none" stroke="#7fbc41" stroke-width="2" opacity="1"/>
		<line x1="230" y1="305" x2="318" y2="305" stroke="#7fbc41" stroke-width="1"/>
	</g>
	<text x="259" y="297.75" fill="#000000" font-family="Verdana" font-size="12">carte</text>
	<text x="235" y="322.8" fill="#000000" font-family="Verdana" font-size="12">code carte</text>
	<line x1="235" y1="325" x2="299" y2="325" stroke="#000000" stroke-width="1"/>
	<text x="235" y="339.8" fill="#000000" font-family="Verdana" font-size="12">nom</text>
	<text x="235" y="356.8" fill="#000000" font-family="Verdana" font-size="12">description</text>
	<text x="235" y="373.8" fill="#000000" font-family="Verdana" font-size="12">niveau</text>
	<text x="235" y="390.8" fill="#000000" font-family="Verdana" font-size="12">puissance</text>
	<text x="235" y="407.8" fill="#000000" font-family="Verdana" font-size="12">défense</text>
	<text x="235" y="424.8" fill="#000000" font-family="Verdana" font-size="12">dégâts</text>
	<text x="235" y="441.8" fill="#000000" font-family="Verdana" font-size="12">points de vie</text>
	<text x="235" y="458.8" fill="#000000" font-family="Verdana" font-size="12">type</text>
	<text x="235" y="475.8" fill="#000000" font-family="Verdana" font-size="12">rareté</text>
</g>

<!-- Entity COLLECTION -->
<g>
	<g>
		<rect x="450" y="357" width="100" height="25" fill="#b8e186" stroke="none" stroke-width="0" opacity="1"/>
		<rect x="450" y="382" width="100" height="25" fill="#e6f5d0" stroke="none" stroke-width="0" opacity="1"/>
		<rect x="450" y="357" width="100" height="50" fill="none" stroke="#7fbc41" stroke-width="2" opacity="1"/>
		<line x1="450" y1="382" x2="550" y2="382" stroke="#7fbc41" stroke-width="1"/>
	</g>
	<text x="472" y="374.75" fill="#000000" font-family="Verdana" font-size="12">collection</text>
	<text x="455" y="399.8" fill="#000000" font-family="Verdana" font-size="12">code collection</text>
	<line x1="455" y1="402" x2="545" y2="402" stroke="#000000" stroke-width="1"/>
</g>

<!-- Entity CAPACITE -->
<g>
	<g>
		<rect x="113" y="509" width="94" height="25" fill="#b8e186" stroke="none" stroke-width="0" opacity="1"/>
		<rect x="113" y="534" width="94" height="59" fill="#e6f5d0" stroke="none" stroke-width="0" opacity="1"/>
		<rect x="113" y="509" width="94" height="84" fill="none" stroke="#7fbc41" stroke-width="2" opacity="1"/>
		<line x1="113" y1="534" x2="207" y2="534" stroke="#7fbc41" stroke-width="1"/>
	</g>
	<text x="135" y="526.75" fill="#000000" font-family="Verdana" font-size="12">capacité</text>
	<text x="118" y="551.8" fill="#000000" font-family="Verdana" font-size="12">code capacité</text>
	<line x1="118" y1="554" x2="201" y2="554" stroke="#000000" stroke-width="1"/>
	<text x="118" y="568.8" fill="#000000" font-family="Verdana" font-size="12">nom</text>
	<text x="118" y="585.8" fill="#000000" font-family="Verdana" font-size="12">mode</text>
</g>
</svg>