<?xml version="1.0" encoding="utf-8"?>
<!-- Generated by Mocodo 4.2.12 -->
<svg width="745" height="728" viewBox="0 0 745 728" xmlns="http://www.w3.org/2000/svg">
<rect x="0" y="0" width="745" height="728" fill="#f7f7f7" stroke="none" stroke-width="0"/>

<!-- Association ENGLOBER -->
<g>
	<line x1="65" y1="94" x2="199" y2="94" stroke="#7fbc41" stroke-width="2"/>
	<line x1="402" y1="94" x2="199" y2="94" stroke="#7fbc41" stroke-width="2"/>
	<g>
		<path d="M219 69 a14 14 90 0 1 14 14 V94 h-68 V83 a14 14 90 0 1 14 -14" fill="#b8e186" stroke="#b8e186" stroke-width="0"/>
		<path d="M233 94 v11 a14 14 90 0 1 -14 14 H179 a14 14 90 0 1 -14 -14 V94 H68" fill="#e6f5d0" stroke="#e6f5d0" stroke-width="0"/>
		<rect x="165" y="69" width="68" height="50" fill="none" rx="14" stroke="#7fbc41" stroke-width="2"/>
		<line x1="165" y1="94" x2="233" y2="94" stroke="#7fbc41" stroke-width="1"/>
		<text x="172" y="86.75" fill="#000000" font-family="Verdana" font-size="12">englober</text>
	</g>
	<text x="106" y="111" fill="#c51b7d" font-family="Verdana" font-size="12">1,N</text>
	<text x="309" y="86" fill="#c51b7d" font-family="Verdana" font-size="12">0,N</text>
</g>

<!-- Association EVOLUER -->
<g>
	<line x1="592" y1="229" x2="592" y2="94" stroke="#7fbc41" stroke-width="2"/>
	<line x1="402" y1="94" x2="592" y2="94" stroke="#7fbc41" stroke-width="2"/>
	<g>
		<path d="M608 69 a14 14 90 0 1 14 14 V94 h-60 V83 a14 14 90 0 1 14 -14" fill="#b8e186" stroke="#b8e186" stroke-width="0"/>
		<path d="M622 94 v11 a14 14 90 0 1 -14 14 H576 a14 14 90 0 1 -14 -14 V94 H60" fill="#e6f5d0" stroke="#e6f5d0" stroke-width="0"/>
		<rect x="562" y="69" width="60" height="50" fill="none" rx="14" stroke="#7fbc41" stroke-width="2"/>
		<line x1="562" y1="94" x2="622" y2="94" stroke="#7fbc41" stroke-width="1"/>
		<text x="569" y="86.75" fill="#000000" font-family="Verdana" font-size="12">évoluer</text>
	</g>
	<text x="597" y="162" fill="#c51b7d" font-family="Verdana" font-size="12">1,N</text>
	<text x="473" y="111" fill="#c51b7d" font-family="Verdana" font-size="12">1,1</text>
</g>

<!-- Association CONSTRUIRE -->
<g>
	<line x1="65" y1="381" x2="65" y2="229" stroke="#7fbc41" stroke-width="2"/>
	<line x1="65" y1="94" x2="65" y2="229" stroke="#7fbc41" stroke-width="2"/>
	<g>
		<path d="M89 204 a14 14 90 0 1 14 14 V229 h-76 V218 a14 14 90 0 1 14 -14" fill="#b8e186" stroke="#b8e186" stroke-width="0"/>
		<path d="M103 229 v11 a14 14 90 0 1 -14 14 H41 a14 14 90 0 1 -14 -14 V229 H76" fill="#e6f5d0" stroke="#e6f5d0" stroke-width="0"/>
		<rect x="27" y="204" width="76" height="50" fill="none" rx="14" stroke="#7fbc41" stroke-width="2"/>
		<line x1="27" y1="229" x2="103" y2="229" stroke="#7fbc41" stroke-width="1"/>
		<text x="35" y="221.75" fill="#000000" font-family="Verdana" font-size="12">construire</text>
	</g>
	<text x="70" y="305" fill="#c51b7d" font-family="Verdana" font-size="12">0,N</text>
	<text x="70" y="145" fill="#c51b7d" font-family="Verdana" font-size="12">1,1</text>
</g>

<!-- Association INCLURE -->
<g>
	<line x1="199" y1="381" x2="199" y2="229" stroke="#7fbc41" stroke-width="2"/>
	<line x1="402" y1="94" x2="199" y2="229" stroke="#7fbc41" stroke-width="2"/>
	<g>
		<path d="M213 204 a14 14 90 0 1 14 14 V229 h-56 V218 a14 14 90 0 1 14 -14" fill="#b8e186" stroke="#b8e186" stroke-width="0"/>
		<path d="M227 229 v11 a14 14 90 0 1 -14 14 H185 a14 14 90 0 1 -14 -14 V229 H56" fill="#e6f5d0" stroke="#e6f5d0" stroke-width="0"/>
		<rect x="171" y="204" width="56" height="50" fill="none" rx="14" stroke="#7fbc41" stroke-width="2"/>
		<line x1="171" y1="229" x2="227" y2="229" stroke="#7fbc41" stroke-width="1"/>
		<text x="179" y="221.75" fill="#000000" font-family="Verdana" font-size="12">inclure</text>
	</g>
	<text x="204" y="348" fill="#c51b7d" font-family="Verdana" font-size="12">0,N</text>
	<text x="309" y="134.99" fill="#c51b7d" font-family="Verdana" font-size="12">0,N</text>
</g>

<!-- Association MAITRISER -->
<g>
	<line x1="402" y1="94" x2="402" y2="229" stroke="#7fbc41" stroke-width="2"/>
	<line x1="402" y1="381" x2="402" y2="229" stroke="#7fbc41" stroke-width="2"/>
	<g>
		<path d="M423 204 a14 14 90 0 1 14 14 V229 h-70 V218 a14 14 90 0 1 14 -14" fill="#b8e186" stroke="#b8e186" stroke-width="0"/>
		<path d="M437 229 v11 a14 14 90 0 1 -14 14 H381 a14 14 90 0 1 -14 -14 V229 H70" fill="#e6f5d0" stroke="#e6f5d0" stroke-width="0"/>
		<rect x="367" y="204" width="70" height="50" fill="none" rx="14" stroke="#7fbc41" stroke-width="2"/>
		<line x1="367" y1="229" x2="437" y2="229" stroke="#7fbc41" stroke-width="1"/>
		<text x="375" y="221.75" fill="#000000" font-family="Verdana" font-size="12">maîtriser</text>
	</g>
	<text x="407" y="196" fill="#c51b7d" font-family="Verdana" font-size="12">1,N</text>
	<text x="407" y="331" fill="#c51b7d" font-family="Verdana" font-size="12">0,N</text>
</g>

<!-- Association ETRE -->
<g>
	<line x1="592" y1="229" x2="696" y2="229" stroke="#7fbc41" stroke-width="2"/>
	<line x1="696" y1="94" x2="696" y2="229" stroke="#7fbc41" stroke-width="2"/>
	<g>
		<path d="M702 204 a14 14 90 0 1 14 14 V229 h-40 V218 a14 14 90 0 1 14 -14" fill="#b8e186" stroke="#b8e186" stroke-width="0"/>
		<path d="M716 229 v11 a14 14 90 0 1 -14 14 H690 a14 14 90 0 1 -14 -14 V229 H40" fill="#e6f5d0" stroke="#e6f5d0" stroke-width="0"/>
		<rect x="676" y="204" width="40" height="50" fill="none" rx="14" stroke="#7fbc41" stroke-width="2"/>
		<line x1="676" y1="229" x2="716" y2="229" stroke="#7fbc41" stroke-width="1"/>
		<text x="684" y="221.75" fill="#000000" font-family="Verdana" font-size="12">être</text>
	</g>
	<text x="636" y="246" fill="#c51b7d" font-family="Verdana" font-size="12">1,1</text>
	<text x="701" y="145" fill="#c51b7d" font-family="Verdana" font-size="12">0,N</text>
</g>

<!-- Association CONTENIR -->
<g>
	<line x1="696" y1="381" x2="592" y2="381" stroke="#7fbc41" stroke-width="2"/>
	<line x1="592" y1="229" x2="592" y2="381" stroke="#7fbc41" stroke-width="2"/>
	<g>
		<path d="M610 356 a14 14 90 0 1 14 14 V381 h-64 V370 a14 14 90 0 1 14 -14" fill="#b8e186" stroke="#b8e186" stroke-width="0"/>
		<path d="M624 381 v11 a14 14 90 0 1 -14 14 H574 a14 14 90 0 1 -14 -14 V381 H64" fill="#e6f5d0" stroke="#e6f5d0" stroke-width="0"/>
		<rect x="560" y="356" width="64" height="50" fill="none" rx="14" stroke="#7fbc41" stroke-width="2"/>
		<line x1="560" y1="381" x2="624" y2="381" stroke="#7fbc41" stroke-width="1"/>
		<text x="567" y="373.75" fill="#000000" font-family="Verdana" font-size="12">contenir</text>
	</g>
	<text x="629" y="398" fill="#c51b7d" font-family="Verdana" font-size="12">0,N</text>
	<text x="597" y="305" fill="#c51b7d" font-family="Verdana" font-size="12">1,1</text>
</g>

<!-- Association EFFECTUER -->
<g>
	<line x1="65" y1="381" x2="65" y2="516" stroke="#7fbc41" stroke-width="2"/>
	<line x1="65" y1="651" x2="65" y2="516" stroke="#7fbc41" stroke-width="2"/>
	<g>
		<path d="M86 491 a14 14 90 0 1 14 14 V516 h-70 V505 a14 14 90 0 1 14 -14" fill="#b8e186" stroke="#b8e186" stroke-width="0"/>
		<path d="M100 516 v11 a14 14 90 0 1 -14 14 H44 a14 14 90 0 1 -14 -14 V516 H70" fill="#e6f5d0" stroke="#e6f5d0" stroke-width="0"/>
		<rect x="30" y="491" width="70" height="50" fill="none" rx="14" stroke="#7fbc41" stroke-width="2"/>
		<line x1="30" y1="516" x2="100" y2="516" stroke="#7fbc41" stroke-width="1"/>
		<text x="38" y="508.75" fill="#000000" font-family="Verdana" font-size="12">effectuer</text>
	</g>
	<text x="38" y="466" fill="#c51b7d" font-family="Verdana" font-size="12">0,N</text>
	<text x="70" y="592" fill="#c51b7d" font-family="Verdana" font-size="12">1,1</text>
</g>

<!-- Association POSSEDER -->
<g>
	<line x1="65" y1="381" x2="199" y2="516" stroke="#7fbc41" stroke-width="2"/>
	<line x1="199" y1="381" x2="199" y2="516" stroke="#7fbc41" stroke-width="2"/>
	<g>
		<path d="M220 491 a14 14 90 0 1 14 14 V516 h-70 V505 a14 14 90 0 1 14 -14" fill="#b8e186" stroke="#b8e186" stroke-width="0"/>
		<path d="M234 516 v11 a14 14 90 0 1 -14 14 H178 a14 14 90 0 1 -14 -14 V516 H70" fill="#e6f5d0" stroke="#e6f5d0" stroke-width="0"/>
		<rect x="164" y="491" width="70" height="50" fill="none" rx="14" stroke="#7fbc41" stroke-width="2"/>
		<line x1="164" y1="516" x2="234" y2="516" stroke="#7fbc41" stroke-width="1"/>
		<text x="172" y="508.75" fill="#000000" font-family="Verdana" font-size="12">posséder</text>
	</g>
	<text x="122" y="432.42" fill="#c51b7d" font-family="Verdana" font-size="12">0,1</text>
	<text x="204" y="423" fill="#c51b7d" font-family="Verdana" font-size="12">1,1</text>
</g>

<!-- Association EXPOSER -->
<g>
	<line x1="402" y1="381" x2="402" y2="516" stroke="#7fbc41" stroke-width="2"/>
	<line x1="592" y1="516" x2="402" y2="516" stroke="#7fbc41" stroke-width="2"/>
	<g>
		<path d="M420 491 a14 14 90 0 1 14 14 V516 h-64 V505 a14 14 90 0 1 14 -14" fill="#b8e186" stroke="#b8e186" stroke-width="0"/>
		<path d="M434 516 v11 a14 14 90 0 1 -14 14 H384 a14 14 90 0 1 -14 -14 V516 H64" fill="#e6f5d0" stroke="#e6f5d0" stroke-width="0"/>
		<rect x="370" y="491" width="64" height="50" fill="none" rx="14" stroke="#7fbc41" stroke-width="2"/>
		<line x1="370" y1="516" x2="434" y2="516" stroke="#7fbc41" stroke-width="1"/>
		<text x="378" y="508.75" fill="#000000" font-family="Verdana" font-size="12">exposer</text>
	</g>
	<text x="407" y="440" fill="#c51b7d" font-family="Verdana" font-size="12">1,1</text>
	<text x="526" y="533" fill="#c51b7d" font-family="Verdana" font-size="12">0,N</text>
</g>

<!-- Association PORTER -->
<g>
	<line x1="696" y1="381" x2="696" y2="516" stroke="#7fbc41" stroke-width="2"/>
	<line x1="696" y1="651" x2="696" y2="516" stroke="#7fbc41" stroke-width="2"/>
	<g>
		<path d="M708 491 a14 14 90 0 1 14 14 V516 h-52 V505 a14 14 90 0 1 14 -14" fill="#b8e186" stroke="#b8e186" stroke-width="0"/>
		<path d="M722 516 v11 a14 14 90 0 1 -14 14 H684 a14 14 90 0 1 -14 -14 V516 H52" fill="#e6f5d0" stroke="#e6f5d0" stroke-width="0"/>
		<rect x="670" y="491" width="52" height="50" fill="none" rx="14" stroke="#7fbc41" stroke-width="2"/>
		<line x1="670" y1="516" x2="722" y2="516" stroke="#7fbc41" stroke-width="1"/>
		<text x="677" y="508.75" fill="#000000" font-family="Verdana" font-size="12">porter</text>
	</g>
	<text x="701" y="466" fill="#c51b7d" font-family="Verdana" font-size="12">1,1</text>
	<text x="701" y="609" fill="#c51b7d" font-family="Verdana" font-size="12">0,N</text>
</g>

<!-- Association AGREMENTER -->
<g>
	<line x1="402" y1="651" x2="199" y2="651" stroke="#7fbc41" stroke-width="2"/>
	<line x1="65" y1="651" x2="199" y2="651" stroke="#7fbc41" stroke-width="2"/>
	<g>
		<path d="M228 626 a14 14 90 0 1 14 14 V651 h-86 V640 a14 14 90 0 1 14 -14" fill="#b8e186" stroke="#b8e186" stroke-width="0"/>
		<path d="M242 651 v11 a14 14 90 0 1 -14 14 H170 a14 14 90 0 1 -14 -14 V651 H86" fill="#e6f5d0" stroke="#e6f5d0" stroke-width="0"/>
		<rect x="156" y="626" width="86" height="50" fill="none" rx="14" stroke="#7fbc41" stroke-width="2"/>
		<line x1="156" y1="651" x2="242" y2="651" stroke="#7fbc41" stroke-width="1"/>
		<text x="164" y="643.75" fill="#000000" font-family="Verdana" font-size="12">agrémenter</text>
	</g>
	<text x="247" y="668" fill="#c51b7d" font-family="Verdana" font-size="12">1,N</text>
	<text x="126" y="668" fill="#c51b7d" font-family="Verdana" font-size="12">0,1</text>
</g>

<!-- Association ARBORER -->
<g>
	<line x1="696" y1="651" x2="592" y2="651" stroke="#7fbc41" stroke-width="2"/>
	<line x1="592" y1="516" x2="592" y2="651" stroke="#7fbc41" stroke-width="2"/>
	<g>
		<path d="M608 626 a14 14 90 0 1 14 14 V651 h-60 V640 a14 14 90 0 1 14 -14" fill="#b8e186" stroke="#b8e186" stroke-width="0"/>
		<path d="M622 651 v11 a14 14 90 0 1 -14 14 H576 a14 14 90 0 1 -14 -14 V651 H60" fill="#e6f5d0" stroke="#e6f5d0" stroke-width="0"/>
		<rect x="562" y="626" width="60" height="50" fill="none" rx="14" stroke="#7fbc41" stroke-width="2"/>
		<line x1="562" y1="651" x2="622" y2="651" stroke="#7fbc41" stroke-width="1"/>
		<text x="570" y="643.75" fill="#000000" font-family="Verdana" font-size="12">arborer</text>
	</g>
	<text x="630" y="668" fill="#c51b7d" font-family="Verdana" font-size="12">1,1</text>
	<text x="597" y="575" fill="#c51b7d" font-family="Verdana" font-size="12">0,N</text>
</g>

<!-- Entity DECK -->
<g>
	<g>
		<rect x="29" y="60" width="72" height="25" fill="#f1b6da" stroke="none" stroke-width="0" opacity="1"/>
		<rect x="29" y="85" width="72" height="43" fill="#fde0ef" stroke="none" stroke-width="0" opacity="1"/>
		<rect x="29" y="60" width="72" height="68" fill="none" stroke="#de77ae" stroke-width="2" opacity="1"/>
		<line x1="29" y1="85" x2="101" y2="85" stroke="#de77ae" stroke-width="1"/>
	</g>
	<text x="51" y="77.75" fill="#000000" font-family="Verdana" font-size="12">deck</text>
	<text x="34" y="102.8" fill="#000000" font-family="Verdana" font-size="12">code deck</text>
	<line x1="34" y1="105" x2="95" y2="105" stroke="#000000" stroke-width="1"/>
	<text x="34" y="119.8" fill="#000000" font-family="Verdana" font-size="12">nom</text>
</g>

<!-- Entity EVOLUTION -->
<g>
	<g>
		<rect x="336" y="9" width="132" height="25" fill="#f1b6da" stroke="none" stroke-width="0" opacity="1"/>
		<rect x="336" y="34" width="132" height="145" fill="#fde0ef" stroke="none" stroke-width="0" opacity="1"/>
		<rect x="336" y="9" width="132" height="170" fill="none" stroke="#de77ae" stroke-width="2" opacity="1"/>
		<line x1="336" y1="34" x2="468" y2="34" stroke="#de77ae" stroke-width="1"/>
	</g>
	<text x="374" y="26.75" fill="#000000" font-family="Verdana" font-size="12">évolution</text>
	<text x="341" y="51.8" fill="#000000" font-family="Verdana" font-size="12">code évolution</text>
	<line x1="341" y1="54" x2="430" y2="54" stroke="#000000" stroke-width="1"/>
	<text x="341" y="68.8" fill="#000000" font-family="Verdana" font-size="12">niveau</text>
	<text x="341" y="85.8" fill="#000000" font-family="Verdana" font-size="12">expérience recquise</text>
	<text x="341" y="102.8" fill="#000000" font-family="Verdana" font-size="12">puissance</text>
	<text x="341" y="119.8" fill="#000000" font-family="Verdana" font-size="12">défense</text>
	<text x="341" y="136.8" fill="#000000" font-family="Verdana" font-size="12">dégâts</text>
	<text x="341" y="153.8" fill="#000000" font-family="Verdana" font-size="12">points de vie</text>
	<text x="341" y="170.8" fill="#000000" font-family="Verdana" font-size="12">image</text>
</g>

<!-- Entity RARETE -->
<g>
	<g>
		<rect x="656" y="60" width="80" height="25" fill="#f1b6da" stroke="none" stroke-width="0" opacity="1"/>
		<rect x="656" y="85" width="80" height="43" fill="#fde0ef" stroke="none" stroke-width="0" opacity="1"/>
		<rect x="656" y="60" width="80" height="68" fill="none" stroke="#de77ae" stroke-width="2" opacity="1"/>
		<line x1="656" y1="85" x2="736" y2="85" stroke="#de77ae" stroke-width="1"/>
	</g>
	<text x="677" y="77.75" fill="#000000" font-family="Verdana" font-size="12">rareté</text>
	<text x="661" y="102.8" fill="#000000" font-family="Verdana" font-size="12">code rareté</text>
	<line x1="661" y1="105" x2="731" y2="105" stroke="#000000" stroke-width="1"/>
	<text x="661" y="119.8" fill="#000000" font-family="Verdana" font-size="12">nom</text>
</g>

<!-- Entity CARTE -->
<g>
	<g>
		<rect x="553" y="170" width="78" height="25" fill="#f1b6da" stroke="none" stroke-width="0" opacity="1"/>
		<rect x="553" y="195" width="78" height="93" fill="#fde0ef" stroke="none" stroke-width="0" opacity="1"/>
		<rect x="553" y="170" width="78" height="118" fill="none" stroke="#de77ae" stroke-width="2" opacity="1"/>
		<line x1="553" y1="195" x2="631" y2="195" stroke="#de77ae" stroke-width="1"/>
	</g>
	<text x="577" y="187.75" fill="#000000" font-family="Verdana" font-size="12">carte</text>
	<text x="558" y="212.8" fill="#000000" font-family="Verdana" font-size="12">code carte</text>
	<line x1="558" y1="215" x2="622" y2="215" stroke="#000000" stroke-width="1"/>
	<text x="558" y="229.8" fill="#000000" font-family="Verdana" font-size="12">nom</text>
	<text x="558" y="246.8" fill="#000000" font-family="Verdana" font-size="12">description</text>
	<text x="558" y="263.8" fill="#000000" font-family="Verdana" font-size="12">type</text>
	<text x="558" y="280.8" fill="#000000" font-family="Verdana" font-size="12">experience</text>
</g>

<!-- Entity UTILISATEUR -->
<g>
	<g>
		<rect x="13" y="313" width="104" height="25" fill="#f1b6da" stroke="none" stroke-width="0" opacity="1"/>
		<rect x="13" y="338" width="104" height="111" fill="#fde0ef" stroke="none" stroke-width="0" opacity="1"/>
		<rect x="13" y="313" width="104" height="136" fill="none" stroke="#de77ae" stroke-width="2" opacity="1"/>
		<line x1="13" y1="338" x2="117" y2="338" stroke="#de77ae" stroke-width="1"/>
	</g>
	<text x="35" y="330.75" fill="#000000" font-family="Verdana" font-size="12">utilisateur</text>
	<text x="18" y="355.8" fill="#000000" font-family="Verdana" font-size="12">code utilisateur</text>
	<line x1="18" y1="358" x2="112" y2="358" stroke="#000000" stroke-width="1"/>
	<text x="18" y="372.8" fill="#000000" font-family="Verdana" font-size="12">pseudo</text>
	<text x="18" y="389.8" fill="#000000" font-family="Verdana" font-size="12">email</text>
	<text x="18" y="406.8" fill="#000000" font-family="Verdana" font-size="12">mot de passe</text>
	<text x="18" y="423.8" fill="#000000" font-family="Verdana" font-size="12">expérience</text>
	<text x="18" y="440.8" fill="#000000" font-family="Verdana" font-size="12">tokens</text>
</g>

<!-- Entity COLLECTION -->
<g>
	<g>
		<rect x="149" y="356" width="100" height="25" fill="#f1b6da" stroke="none" stroke-width="0" opacity="1"/>
		<rect x="149" y="381" width="100" height="25" fill="#fde0ef" stroke="none" stroke-width="0" opacity="1"/>
		<rect x="149" y="356" width="100" height="50" fill="none" stroke="#de77ae" stroke-width="2" opacity="1"/>
		<line x1="149" y1="381" x2="249" y2="381" stroke="#de77ae" stroke-width="1"/>
	</g>
	<text x="171" y="373.75" fill="#000000" font-family="Verdana" font-size="12">collection</text>
	<text x="154" y="398.8" fill="#000000" font-family="Verdana" font-size="12">code collection</text>
	<line x1="154" y1="401" x2="244" y2="401" stroke="#000000" stroke-width="1"/>
</g>

<!-- Entity CAPACITE -->
<g>
	<g>
		<rect x="355" y="339" width="94" height="25" fill="#f1b6da" stroke="none" stroke-width="0" opacity="1"/>
		<rect x="355" y="364" width="94" height="59" fill="#fde0ef" stroke="none" stroke-width="0" opacity="1"/>
		<rect x="355" y="339" width="94" height="84" fill="none" stroke="#de77ae" stroke-width="2" opacity="1"/>
		<line x1="355" y1="364" x2="449" y2="364" stroke="#de77ae" stroke-width="1"/>
	</g>
	<text x="377" y="356.75" fill="#000000" font-family="Verdana" font-size="12">capacité</text>
	<text x="360" y="381.8" fill="#000000" font-family="Verdana" font-size="12">code capacité</text>
	<line x1="360" y1="384" x2="443" y2="384" stroke="#000000" stroke-width="1"/>
	<text x="360" y="398.8" fill="#000000" font-family="Verdana" font-size="12">nom</text>
	<text x="360" y="415.8" fill="#000000" font-family="Verdana" font-size="12">mode</text>
</g>

<!-- Entity LEGION -->
<g>
	<g>
		<rect x="656" y="313" width="80" height="25" fill="#f1b6da" stroke="none" stroke-width="0" opacity="1"/>
		<rect x="656" y="338" width="80" height="111" fill="#fde0ef" stroke="none" stroke-width="0" opacity="1"/>
		<rect x="656" y="313" width="80" height="136" fill="none" stroke="#de77ae" stroke-width="2" opacity="1"/>
		<line x1="656" y1="338" x2="736" y2="338" stroke="#de77ae" stroke-width="1"/>
	</g>
	<text x="678" y="330.75" fill="#000000" font-family="Verdana" font-size="12">légion</text>
	<text x="661" y="355.8" fill="#000000" font-family="Verdana" font-size="12">code légion</text>
	<line x1="661" y1="358" x2="730" y2="358" stroke="#000000" stroke-width="1"/>
	<text x="661" y="372.8" fill="#000000" font-family="Verdana" font-size="12">nom</text>
	<text x="661" y="389.8" fill="#000000" font-family="Verdana" font-size="12">image</text>
	<text x="661" y="406.8" fill="#000000" font-family="Verdana" font-size="12">logo</text>
	<text x="661" y="423.8" fill="#000000" font-family="Verdana" font-size="12">description</text>
	<text x="661" y="440.8" fill="#000000" font-family="Verdana" font-size="12">slogan</text>
</g>

<!-- Entity EFFET -->
<g>
	<g>
		<rect x="553" y="474" width="78" height="25" fill="#f1b6da" stroke="none" stroke-width="0" opacity="1"/>
		<rect x="553" y="499" width="78" height="59" fill="#fde0ef" stroke="none" stroke-width="0" opacity="1"/>
		<rect x="553" y="474" width="78" height="84" fill="none" stroke="#de77ae" stroke-width="2" opacity="1"/>
		<line x1="553" y1="499" x2="631" y2="499" stroke="#de77ae" stroke-width="1"/>
	</g>
	<text x="578" y="491.75" fill="#000000" font-family="Verdana" font-size="12">effet</text>
	<text x="558" y="516.8" fill="#000000" font-family="Verdana" font-size="12">code effet</text>
	<line x1="558" y1="519" x2="619" y2="519" stroke="#000000" stroke-width="1"/>
	<text x="558" y="533.8" fill="#000000" font-family="Verdana" font-size="12">code</text>
	<text x="558" y="550.8" fill="#000000" font-family="Verdana" font-size="12">description</text>
</g>

<!-- Entity TRANSACTION -->
<g>
	<g>
		<rect x="9" y="600" width="112" height="25" fill="#f1b6da" stroke="none" stroke-width="0" opacity="1"/>
		<rect x="9" y="625" width="112" height="77" fill="#fde0ef" stroke="none" stroke-width="0" opacity="1"/>
		<rect x="9" y="600" width="112" height="102" fill="none" stroke="#de77ae" stroke-width="2" opacity="1"/>
		<line x1="9" y1="625" x2="121" y2="625" stroke="#de77ae" stroke-width="1"/>
	</g>
	<text x="31" y="617.75" fill="#000000" font-family="Verdana" font-size="12">transaction</text>
	<text x="14" y="642.8" fill="#000000" font-family="Verdana" font-size="12">code transaction</text>
	<line x1="14" y1="645" x2="115" y2="645" stroke="#000000" stroke-width="1"/>
	<text x="14" y="659.8" fill="#000000" font-family="Verdana" font-size="12">type</text>
	<text x="14" y="676.8" fill="#000000" font-family="Verdana" font-size="12">montant</text>
	<text x="14" y="693.8" fill="#000000" font-family="Verdana" font-size="12">description</text>
</g>

<!-- Entity BOOSTER -->
<g>
	<g>
		<rect x="274" y="583" width="256" height="25" fill="#f1b6da" stroke="none" stroke-width="0" opacity="1"/>
		<rect x="274" y="608" width="256" height="111" fill="#fde0ef" stroke="none" stroke-width="0" opacity="1"/>
		<rect x="274" y="583" width="256" height="136" fill="none" stroke="#de77ae" stroke-width="2" opacity="1"/>
		<line x1="274" y1="608" x2="530" y2="608" stroke="#de77ae" stroke-width="1"/>
	</g>
	<text x="379" y="600.75" fill="#000000" font-family="Verdana" font-size="12">booster</text>
	<text x="279" y="625.8" fill="#000000" font-family="Verdana" font-size="12">code booster</text>
	<line x1="279" y1="628" x2="358" y2="628" stroke="#000000" stroke-width="1"/>
	<text x="279" y="642.8" fill="#000000" font-family="Verdana" font-size="12">price</text>
	<text x="279" y="659.8" fill="#000000" font-family="Verdana" font-size="12">pourcentage obtention carte commune</text>
	<text x="279" y="676.8" fill="#000000" font-family="Verdana" font-size="12">pourcentage obtention carte inhabituelle</text>
	<text x="279" y="693.8" fill="#000000" font-family="Verdana" font-size="12">pourcentage obtention carte rare</text>
	<text x="279" y="710.8" fill="#000000" font-family="Verdana" font-size="12">pourcentage obtention carte légendaire</text>
</g>

<!-- Entity BONUS -->
<g>
	<g>
		<rect x="656" y="617" width="80" height="25" fill="#f1b6da" stroke="none" stroke-width="0" opacity="1"/>
		<rect x="656" y="642" width="80" height="43" fill="#fde0ef" stroke="none" stroke-width="0" opacity="1"/>
		<rect x="656" y="617" width="80" height="68" fill="none" stroke="#de77ae" stroke-width="2" opacity="1"/>
		<line x1="656" y1="642" x2="736" y2="642" stroke="#de77ae" stroke-width="1"/>
	</g>
	<text x="678" y="634.75" fill="#000000" font-family="Verdana" font-size="12">bonus</text>
	<text x="661" y="659.8" fill="#000000" font-family="Verdana" font-size="12">code bonus</text>
	<line x1="661" y1="662" x2="731" y2="662" stroke="#000000" stroke-width="1"/>
	<text x="661" y="676.8" fill="#000000" font-family="Verdana" font-size="12">mode</text>
</g>
</svg>