<?xml version="1.0" encoding="utf-8"?>
<!-- Generated by Mocodo 4.2.12 -->
<svg width="551" height="551" viewBox="0 0 551 551" xmlns="http://www.w3.org/2000/svg">
<rect x="0" y="0" width="551" height="551" fill="#f7f7f7" stroke="none" stroke-width="0"/>

<!-- Association CONSTRUIRE -->
<g>
	<line x1="169" y1="60" x2="47" y2="60" stroke="#de77ae" stroke-width="2"/>
	<line x1="47" y1="161" x2="47" y2="60" stroke="#de77ae" stroke-width="2"/>
	<g>
		<path d="M71 35 a14 14 90 0 1 14 14 V60 h-76 V49 a14 14 90 0 1 14 -14" fill="#f1b6da" stroke="#f1b6da" stroke-width="0"/>
		<path d="M85 60 v11 a14 14 90 0 1 -14 14 H23 a14 14 90 0 1 -14 -14 V60 H76" fill="#fde0ef" stroke="#fde0ef" stroke-width="0"/>
		<rect x="9" y="35" width="76" height="50" fill="none" rx="14" stroke="#de77ae" stroke-width="2"/>
		<line x1="9" y1="60" x2="85" y2="60" stroke="#de77ae" stroke-width="1"/>
		<text x="17" y="52.75" fill="#000000" font-family="Verdana" font-size="12">construire</text>
	</g>
	<text x="90" y="77" fill="#4d9221" font-family="Verdana" font-size="12">0,N</text>
	<text x="52" y="119" fill="#4d9221" font-family="Verdana" font-size="12">1,1</text>
</g>

<!-- Association POSSEDER -->
<g>
	<line x1="169" y1="60" x2="288" y2="60" stroke="#de77ae" stroke-width="2"/>
	<line x1="288" y1="161" x2="288" y2="60" stroke="#de77ae" stroke-width="2"/>
	<g>
		<path d="M309 35 a14 14 90 0 1 14 14 V60 h-70 V49 a14 14 90 0 1 14 -14" fill="#f1b6da" stroke="#f1b6da" stroke-width="0"/>
		<path d="M323 60 v11 a14 14 90 0 1 -14 14 H267 a14 14 90 0 1 -14 -14 V60 H70" fill="#fde0ef" stroke="#fde0ef" stroke-width="0"/>
		<rect x="253" y="35" width="70" height="50" fill="none" rx="14" stroke="#de77ae" stroke-width="2"/>
		<line x1="253" y1="60" x2="323" y2="60" stroke="#de77ae" stroke-width="1"/>
		<text x="261" y="52.75" fill="#000000" font-family="Verdana" font-size="12">posséder</text>
	</g>
	<text x="226" y="77" fill="#4d9221" font-family="Verdana" font-size="12">0,1</text>
	<text x="293" y="128" fill="#4d9221" font-family="Verdana" font-size="12">1,1</text>
</g>

<!-- Association INCLURE -->
<g>
	<line x1="288" y1="161" x2="169" y2="161" stroke="#de77ae" stroke-width="2"/>
	<line x1="169" y1="313" x2="169" y2="161" stroke="#de77ae" stroke-width="2"/>
	<g>
		<path d="M183 136 a14 14 90 0 1 14 14 V161 h-56 V150 a14 14 90 0 1 14 -14" fill="#f1b6da" stroke="#f1b6da" stroke-width="0"/>
		<path d="M197 161 v11 a14 14 90 0 1 -14 14 H155 a14 14 90 0 1 -14 -14 V161 H56" fill="#fde0ef" stroke="#fde0ef" stroke-width="0"/>
		<rect x="141" y="136" width="56" height="50" fill="none" rx="14" stroke="#de77ae" stroke-width="2"/>
		<line x1="141" y1="161" x2="197" y2="161" stroke="#de77ae" stroke-width="1"/>
		<text x="149" y="153.75" fill="#000000" font-family="Verdana" font-size="12">inclure</text>
	</g>
	<text x="211" y="178" fill="#4d9221" font-family="Verdana" font-size="12">0,N</text>
	<text x="174" y="203" fill="#4d9221" font-family="Verdana" font-size="12">0,N</text>
</g>

<!-- Association PORTER -->
<g>
	<line x1="399" y1="313" x2="399" y2="161" stroke="#de77ae" stroke-width="2"/>
	<line x1="502" y1="161" x2="399" y2="161" stroke="#de77ae" stroke-width="2"/>
	<g>
		<path d="M411 136 a14 14 90 0 1 14 14 V161 h-52 V150 a14 14 90 0 1 14 -14" fill="#f1b6da" stroke="#f1b6da" stroke-width="0"/>
		<path d="M425 161 v11 a14 14 90 0 1 -14 14 H387 a14 14 90 0 1 -14 -14 V161 H52" fill="#fde0ef" stroke="#fde0ef" stroke-width="0"/>
		<rect x="373" y="136" width="52" height="50" fill="none" rx="14" stroke="#de77ae" stroke-width="2"/>
		<line x1="373" y1="161" x2="425" y2="161" stroke="#de77ae" stroke-width="1"/>
		<text x="380" y="153.75" fill="#000000" font-family="Verdana" font-size="12">porter</text>
	</g>
	<text x="404" y="237" fill="#4d9221" font-family="Verdana" font-size="12">1,1</text>
	<text x="435" y="178" fill="#4d9221" font-family="Verdana" font-size="12">0,N</text>
</g>

<!-- Association ENGLOBER -->
<g>
	<line x1="47" y1="161" x2="47" y2="313" stroke="#de77ae" stroke-width="2"/>
	<line x1="169" y1="313" x2="47" y2="313" stroke="#de77ae" stroke-width="2"/>
	<g>
		<path d="M67 288 a14 14 90 0 1 14 14 V313 h-68 V302 a14 14 90 0 1 14 -14" fill="#f1b6da" stroke="#f1b6da" stroke-width="0"/>
		<path d="M81 313 v11 a14 14 90 0 1 -14 14 H27 a14 14 90 0 1 -14 -14 V313 H68" fill="#fde0ef" stroke="#fde0ef" stroke-width="0"/>
		<rect x="13" y="288" width="68" height="50" fill="none" rx="14" stroke="#de77ae" stroke-width="2"/>
		<line x1="13" y1="313" x2="81" y2="313" stroke="#de77ae" stroke-width="1"/>
		<text x="20" y="305.75" fill="#000000" font-family="Verdana" font-size="12">englober</text>
	</g>
	<text x="52" y="212" fill="#4d9221" font-family="Verdana" font-size="12">1,N</text>
	<text x="98" y="330" fill="#4d9221" font-family="Verdana" font-size="12">0,N</text>
</g>

<!-- Association CONTENIR -->
<g>
	<line x1="399" y1="313" x2="288" y2="313" stroke="#de77ae" stroke-width="2"/>
	<line x1="169" y1="313" x2="288" y2="313" stroke="#de77ae" stroke-width="2"/>
	<g>
		<path d="M306 288 a14 14 90 0 1 14 14 V313 h-64 V302 a14 14 90 0 1 14 -14" fill="#f1b6da" stroke="#f1b6da" stroke-width="0"/>
		<path d="M320 313 v11 a14 14 90 0 1 -14 14 H270 a14 14 90 0 1 -14 -14 V313 H64" fill="#fde0ef" stroke="#fde0ef" stroke-width="0"/>
		<rect x="256" y="288" width="64" height="50" fill="none" rx="14" stroke="#de77ae" stroke-width="2"/>
		<line x1="256" y1="313" x2="320" y2="313" stroke="#de77ae" stroke-width="1"/>
		<text x="263" y="305.75" fill="#000000" font-family="Verdana" font-size="12">contenir</text>
	</g>
	<text x="332" y="330" fill="#4d9221" font-family="Verdana" font-size="12">0,N</text>
	<text x="218" y="330" fill="#4d9221" font-family="Verdana" font-size="12">1,1</text>
</g>

<!-- Association ARBORER -->
<g>
	<line x1="399" y1="313" x2="502" y2="313" stroke="#de77ae" stroke-width="2"/>
	<line x1="502" y1="491" x2="502" y2="313" stroke="#de77ae" stroke-width="2"/>
	<g>
		<path d="M518 288 a14 14 90 0 1 14 14 V313 h-60 V302 a14 14 90 0 1 14 -14" fill="#f1b6da" stroke="#f1b6da" stroke-width="0"/>
		<path d="M532 313 v11 a14 14 90 0 1 -14 14 H486 a14 14 90 0 1 -14 -14 V313 H60" fill="#fde0ef" stroke="#fde0ef" stroke-width="0"/>
		<rect x="472" y="288" width="60" height="50" fill="none" rx="14" stroke="#de77ae" stroke-width="2"/>
		<line x1="472" y1="313" x2="532" y2="313" stroke="#de77ae" stroke-width="1"/>
		<text x="480" y="305.75" fill="#000000" font-family="Verdana" font-size="12">arborer</text>
	</g>
	<text x="444" y="330" fill="#4d9221" font-family="Verdana" font-size="12">1,1</text>
	<text x="507" y="449" fill="#4d9221" font-family="Verdana" font-size="12">0,N</text>
</g>

<!-- Association MAITRISER -->
<g>
	<line x1="169" y1="313" x2="169" y2="491" stroke="#de77ae" stroke-width="2"/>
	<line x1="288" y1="491" x2="169" y2="491" stroke="#de77ae" stroke-width="2"/>
	<g>
		<path d="M190 466 a14 14 90 0 1 14 14 V491 h-70 V480 a14 14 90 0 1 14 -14" fill="#f1b6da" stroke="#f1b6da" stroke-width="0"/>
		<path d="M204 491 v11 a14 14 90 0 1 -14 14 H148 a14 14 90 0 1 -14 -14 V491 H70" fill="#fde0ef" stroke="#fde0ef" stroke-width="0"/>
		<rect x="134" y="466" width="70" height="50" fill="none" rx="14" stroke="#de77ae" stroke-width="2"/>
		<line x1="134" y1="491" x2="204" y2="491" stroke="#de77ae" stroke-width="1"/>
		<text x="142" y="483.75" fill="#000000" font-family="Verdana" font-size="12">maîtriser</text>
	</g>
	<text x="174" y="432" fill="#4d9221" font-family="Verdana" font-size="12">1,N</text>
	<text x="214" y="508" fill="#4d9221" font-family="Verdana" font-size="12">0,N</text>
</g>

<!-- Association EXPOSER -->
<g>
	<line x1="288" y1="491" x2="399" y2="491" stroke="#de77ae" stroke-width="2"/>
	<line x1="502" y1="491" x2="399" y2="491" stroke="#de77ae" stroke-width="2"/>
	<g>
		<path d="M417 466 a14 14 90 0 1 14 14 V491 h-64 V480 a14 14 90 0 1 14 -14" fill="#f1b6da" stroke="#f1b6da" stroke-width="0"/>
		<path d="M431 491 v11 a14 14 90 0 1 -14 14 H381 a14 14 90 0 1 -14 -14 V491 H64" fill="#fde0ef" stroke="#fde0ef" stroke-width="0"/>
		<rect x="367" y="466" width="64" height="50" fill="none" rx="14" stroke="#de77ae" stroke-width="2"/>
		<line x1="367" y1="491" x2="431" y2="491" stroke="#de77ae" stroke-width="1"/>
		<text x="375" y="483.75" fill="#000000" font-family="Verdana" font-size="12">exposer</text>
	</g>
	<text x="340" y="508" fill="#4d9221" font-family="Verdana" font-size="12">1,1</text>
	<text x="436" y="508" fill="#4d9221" font-family="Verdana" font-size="12">0,N</text>
</g>

<!-- Entity UTILISATEUR -->
<g>
	<g>
		<rect x="117" y="9" width="104" height="25" fill="#b8e186" stroke="none" stroke-width="0" opacity="1"/>
		<rect x="117" y="34" width="104" height="77" fill="#e6f5d0" stroke="none" stroke-width="0" opacity="1"/>
		<rect x="117" y="9" width="104" height="102" fill="none" stroke="#7fbc41" stroke-width="2" opacity="1"/>
		<line x1="117" y1="34" x2="221" y2="34" stroke="#7fbc41" stroke-width="1"/>
	</g>
	<text x="139" y="26.75" fill="#000000" font-family="Verdana" font-size="12">utilisateur</text>
	<text x="122" y="51.8" fill="#000000" font-family="Verdana" font-size="12">code utilisateur</text>
	<line x1="122" y1="54" x2="216" y2="54" stroke="#000000" stroke-width="1"/>
	<text x="122" y="68.8" fill="#000000" font-family="Verdana" font-size="12">pseudo</text>
	<text x="122" y="85.8" fill="#000000" font-family="Verdana" font-size="12">email</text>
	<text x="122" y="102.8" fill="#000000" font-family="Verdana" font-size="12">mot de passe</text>
</g>

<!-- Entity DECK -->
<g>
	<g>
		<rect x="11" y="127" width="72" height="25" fill="#b8e186" stroke="none" stroke-width="0" opacity="1"/>
		<rect x="11" y="152" width="72" height="43" fill="#e6f5d0" stroke="none" stroke-width="0" opacity="1"/>
		<rect x="11" y="127" width="72" height="68" fill="none" stroke="#7fbc41" stroke-width="2" opacity="1"/>
		<line x1="11" y1="152" x2="83" y2="152" stroke="#7fbc41" stroke-width="1"/>
	</g>
	<text x="33" y="144.75" fill="#000000" font-family="Verdana" font-size="12">deck</text>
	<text x="16" y="169.8" fill="#000000" font-family="Verdana" font-size="12">code deck</text>
	<line x1="16" y1="172" x2="77" y2="172" stroke="#000000" stroke-width="1"/>
	<text x="16" y="186.8" fill="#000000" font-family="Verdana" font-size="12">nom</text>
</g>

<!-- Entity COLLECTION -->
<g>
	<g>
		<rect x="238" y="136" width="100" height="25" fill="#b8e186" stroke="none" stroke-width="0" opacity="1"/>
		<rect x="238" y="161" width="100" height="25" fill="#e6f5d0" stroke="none" stroke-width="0" opacity="1"/>
		<rect x="238" y="136" width="100" height="50" fill="none" stroke="#7fbc41" stroke-width="2" opacity="1"/>
		<line x1="238" y1="161" x2="338" y2="161" stroke="#7fbc41" stroke-width="1"/>
	</g>
	<text x="260" y="153.75" fill="#000000" font-family="Verdana" font-size="12">collection</text>
	<text x="243" y="178.8" fill="#000000" font-family="Verdana" font-size="12">code collection</text>
	<line x1="243" y1="181" x2="333" y2="181" stroke="#000000" stroke-width="1"/>
</g>

<!-- Entity BONUS -->
<g>
	<g>
		<rect x="462" y="119" width="80" height="25" fill="#b8e186" stroke="none" stroke-width="0" opacity="1"/>
		<rect x="462" y="144" width="80" height="59" fill="#e6f5d0" stroke="none" stroke-width="0" opacity="1"/>
		<rect x="462" y="119" width="80" height="84" fill="none" stroke="#7fbc41" stroke-width="2" opacity="1"/>
		<line x1="462" y1="144" x2="542" y2="144" stroke="#7fbc41" stroke-width="1"/>
	</g>
	<text x="484" y="136.75" fill="#000000" font-family="Verdana" font-size="12">bonus</text>
	<text x="467" y="161.8" fill="#000000" font-family="Verdana" font-size="12">code bonus</text>
	<line x1="467" y1="164" x2="537" y2="164" stroke="#000000" stroke-width="1"/>
	<text x="467" y="178.8" fill="#000000" font-family="Verdana" font-size="12">effet</text>
	<text x="467" y="195.8" fill="#000000" font-family="Verdana" font-size="12">mode</text>
</g>

<!-- Entity CARTE -->
<g>
	<g>
		<rect x="125" y="211" width="88" height="25" fill="#b8e186" stroke="none" stroke-width="0" opacity="1"/>
		<rect x="125" y="236" width="88" height="179" fill="#e6f5d0" stroke="none" stroke-width="0" opacity="1"/>
		<rect x="125" y="211" width="88" height="204" fill="none" stroke="#7fbc41" stroke-width="2" opacity="1"/>
		<line x1="125" y1="236" x2="213" y2="236" stroke="#7fbc41" stroke-width="1"/>
	</g>
	<text x="154" y="228.75" fill="#000000" font-family="Verdana" font-size="12">carte</text>
	<text x="130" y="253.8" fill="#000000" font-family="Verdana" font-size="12">code carte</text>
	<line x1="130" y1="256" x2="194" y2="256" stroke="#000000" stroke-width="1"/>
	<text x="130" y="270.8" fill="#000000" font-family="Verdana" font-size="12">nom</text>
	<text x="130" y="287.8" fill="#000000" font-family="Verdana" font-size="12">description</text>
	<text x="130" y="304.8" fill="#000000" font-family="Verdana" font-size="12">niveau</text>
	<text x="130" y="321.8" fill="#000000" font-family="Verdana" font-size="12">puissance</text>
	<text x="130" y="338.8" fill="#000000" font-family="Verdana" font-size="12">défense</text>
	<text x="130" y="355.8" fill="#000000" font-family="Verdana" font-size="12">dégâts</text>
	<text x="130" y="372.8" fill="#000000" font-family="Verdana" font-size="12">points de vie</text>
	<text x="130" y="389.8" fill="#000000" font-family="Verdana" font-size="12">type</text>
	<text x="130" y="406.8" fill="#000000" font-family="Verdana" font-size="12">rareté</text>
</g>

<!-- Entity LEGION -->
<g>
	<g>
		<rect x="359" y="245" width="80" height="25" fill="#b8e186" stroke="none" stroke-width="0" opacity="1"/>
		<rect x="359" y="270" width="80" height="111" fill="#e6f5d0" stroke="none" stroke-width="0" opacity="1"/>
		<rect x="359" y="245" width="80" height="136" fill="none" stroke="#7fbc41" stroke-width="2" opacity="1"/>
		<line x1="359" y1="270" x2="439" y2="270" stroke="#7fbc41" stroke-width="1"/>
	</g>
	<text x="381" y="262.75" fill="#000000" font-family="Verdana" font-size="12">légion</text>
	<text x="364" y="287.8" fill="#000000" font-family="Verdana" font-size="12">code légion</text>
	<line x1="364" y1="290" x2="433" y2="290" stroke="#000000" stroke-width="1"/>
	<text x="364" y="304.8" fill="#000000" font-family="Verdana" font-size="12">nom</text>
	<text x="364" y="321.8" fill="#000000" font-family="Verdana" font-size="12">image</text>
	<text x="364" y="338.8" fill="#000000" font-family="Verdana" font-size="12">logo</text>
	<text x="364" y="355.8" fill="#000000" font-family="Verdana" font-size="12">description</text>
	<text x="364" y="372.8" fill="#000000" font-family="Verdana" font-size="12">slogan</text>
</g>

<!-- Entity CAPACITE -->
<g>
	<g>
		<rect x="241" y="440" width="94" height="25" fill="#b8e186" stroke="none" stroke-width="0" opacity="1"/>
		<rect x="241" y="465" width="94" height="77" fill="#e6f5d0" stroke="none" stroke-width="0" opacity="1"/>
		<rect x="241" y="440" width="94" height="102" fill="none" stroke="#7fbc41" stroke-width="2" opacity="1"/>
		<line x1="241" y1="465" x2="335" y2="465" stroke="#7fbc41" stroke-width="1"/>
	</g>
	<text x="263" y="457.75" fill="#000000" font-family="Verdana" font-size="12">capacité</text>
	<text x="246" y="482.8" fill="#000000" font-family="Verdana" font-size="12">code capacité</text>
	<line x1="246" y1="485" x2="329" y2="485" stroke="#000000" stroke-width="1"/>
	<text x="246" y="499.8" fill="#000000" font-family="Verdana" font-size="12">nom</text>
	<text x="246" y="516.8" fill="#000000" font-family="Verdana" font-size="12">effet</text>
	<text x="246" y="533.8" fill="#000000" font-family="Verdana" font-size="12">mode</text>
</g>

<!-- Entity EFFET -->
<g>
	<g>
		<rect x="463" y="457" width="78" height="25" fill="#b8e186" stroke="none" stroke-width="0" opacity="1"/>
		<rect x="463" y="482" width="78" height="43" fill="#e6f5d0" stroke="none" stroke-width="0" opacity="1"/>
		<rect x="463" y="457" width="78" height="68" fill="none" stroke="#7fbc41" stroke-width="2" opacity="1"/>
		<line x1="463" y1="482" x2="541" y2="482" stroke="#7fbc41" stroke-width="1"/>
	</g>
	<text x="488" y="474.75" fill="#000000" font-family="Verdana" font-size="12">effet</text>
	<text x="468" y="499.8" fill="#000000" font-family="Verdana" font-size="12">code effet</text>
	<line x1="468" y1="502" x2="529" y2="502" stroke="#000000" stroke-width="1"/>
	<text x="468" y="516.8" fill="#000000" font-family="Verdana" font-size="12">description</text>
</g>
</svg>