<?xml version="1.0" encoding="utf-8"?>
<!-- Generated by Mocodo 4.2.12 -->
<svg width="742" height="737" viewBox="0 0 742 737" xmlns="http://www.w3.org/2000/svg">
<rect x="0" y="0" width="742" height="737" fill="#f7f7f7" stroke="none" stroke-width="0"/>

<!-- Association ARBORER -->
<g>
	<line x1="49" y1="77" x2="153" y2="77" stroke="#8073ac" stroke-width="2"/>
	<line x1="153" y1="212" x2="153" y2="77" stroke="#8073ac" stroke-width="2"/>
	<g>
		<path d="M169 52 a14 14 90 0 1 14 14 V77 h-60 V66 a14 14 90 0 1 14 -14" fill="#b2abd2" stroke="#b2abd2" stroke-width="0"/>
		<path d="M183 77 v11 a14 14 90 0 1 -14 14 H137 a14 14 90 0 1 -14 -14 V77 H60" fill="#d8daeb" stroke="#d8daeb" stroke-width="0"/>
		<rect x="123" y="52" width="60" height="50" fill="none" rx="14" stroke="#8073ac" stroke-width="2"/>
		<line x1="123" y1="77" x2="183" y2="77" stroke="#8073ac" stroke-width="1"/>
		<text x="131" y="69.75" fill="#000000" font-family="Verdana" font-size="12">arborer</text>
	</g>
	<text x="94" y="94" fill="#b35806" font-family="Verdana" font-size="12">1,1</text>
	<text x="158" y="162" fill="#b35806" font-family="Verdana" font-size="12">0,N</text>
</g>

<!-- Association AGREMENTER -->
<g>
	<line x1="343" y1="77" x2="546" y2="77" stroke="#8073ac" stroke-width="2"/>
	<line x1="677" y1="77" x2="546" y2="77" stroke="#8073ac" stroke-width="2"/>
	<g>
		<path d="M575 52 a14 14 90 0 1 14 14 V77 h-86 V66 a14 14 90 0 1 14 -14" fill="#b2abd2" stroke="#b2abd2" stroke-width="0"/>
		<path d="M589 77 v11 a14 14 90 0 1 -14 14 H517 a14 14 90 0 1 -14 -14 V77 H86" fill="#d8daeb" stroke="#d8daeb" stroke-width="0"/>
		<rect x="503" y="52" width="86" height="50" fill="none" rx="14" stroke="#8073ac" stroke-width="2"/>
		<line x1="503" y1="77" x2="589" y2="77" stroke="#8073ac" stroke-width="1"/>
		<text x="511" y="69.75" fill="#000000" font-family="Verdana" font-size="12">agrémenter</text>
	</g>
	<text x="476" y="94" fill="#b35806" font-family="Verdana" font-size="12">1,N</text>
	<text x="595" y="94" fill="#b35806" font-family="Verdana" font-size="12">0,1</text>
</g>

<!-- Association PORTER -->
<g>
	<line x1="49" y1="347" x2="49" y2="212" stroke="#8073ac" stroke-width="2"/>
	<line x1="49" y1="77" x2="49" y2="212" stroke="#8073ac" stroke-width="2"/>
	<g>
		<path d="M61 187 a14 14 90 0 1 14 14 V212 h-52 V201 a14 14 90 0 1 14 -14" fill="#b2abd2" stroke="#b2abd2" stroke-width="0"/>
		<path d="M75 212 v11 a14 14 90 0 1 -14 14 H37 a14 14 90 0 1 -14 -14 V212 H52" fill="#d8daeb" stroke="#d8daeb" stroke-width="0"/>
		<rect x="23" y="187" width="52" height="50" fill="none" rx="14" stroke="#8073ac" stroke-width="2"/>
		<line x1="23" y1="212" x2="75" y2="212" stroke="#8073ac" stroke-width="1"/>
		<text x="30" y="204.75" fill="#000000" font-family="Verdana" font-size="12">porter</text>
	</g>
	<text x="54" y="271" fill="#b35806" font-family="Verdana" font-size="12">1,1</text>
	<text x="54" y="128" fill="#b35806" font-family="Verdana" font-size="12">0,N</text>
</g>

<!-- Association EXPOSER -->
<g>
	<line x1="343" y1="347" x2="343" y2="212" stroke="#8073ac" stroke-width="2"/>
	<line x1="153" y1="212" x2="343" y2="212" stroke="#8073ac" stroke-width="2"/>
	<g>
		<path d="M361 187 a14 14 90 0 1 14 14 V212 h-64 V201 a14 14 90 0 1 14 -14" fill="#b2abd2" stroke="#b2abd2" stroke-width="0"/>
		<path d="M375 212 v11 a14 14 90 0 1 -14 14 H325 a14 14 90 0 1 -14 -14 V212 H64" fill="#d8daeb" stroke="#d8daeb" stroke-width="0"/>
		<rect x="311" y="187" width="64" height="50" fill="none" rx="14" stroke="#8073ac" stroke-width="2"/>
		<line x1="311" y1="212" x2="375" y2="212" stroke="#8073ac" stroke-width="1"/>
		<text x="319" y="204.75" fill="#000000" font-family="Verdana" font-size="12">exposer</text>
	</g>
	<text x="348" y="297" fill="#b35806" font-family="Verdana" font-size="12">1,1</text>
	<text x="197" y="229" fill="#b35806" font-family="Verdana" font-size="12">0,N</text>
</g>

<!-- Association CONSTRUIRE -->
<g>
	<line x1="677" y1="347" x2="546" y2="212" stroke="#8073ac" stroke-width="2"/>
	<line x1="546" y1="347" x2="546" y2="212" stroke="#8073ac" stroke-width="2"/>
	<g>
		<path d="M570 187 a14 14 90 0 1 14 14 V212 h-76 V201 a14 14 90 0 1 14 -14" fill="#b2abd2" stroke="#b2abd2" stroke-width="0"/>
		<path d="M584 212 v11 a14 14 90 0 1 -14 14 H522 a14 14 90 0 1 -14 -14 V212 H76" fill="#d8daeb" stroke="#d8daeb" stroke-width="0"/>
		<rect x="508" y="187" width="76" height="50" fill="none" rx="14" stroke="#8073ac" stroke-width="2"/>
		<line x1="508" y1="212" x2="584" y2="212" stroke="#8073ac" stroke-width="1"/>
		<text x="516" y="204.75" fill="#000000" font-family="Verdana" font-size="12">construire</text>
	</g>
	<text x="598" y="303.49" fill="#b35806" font-family="Verdana" font-size="12">0,N</text>
	<text x="551" y="305" fill="#b35806" font-family="Verdana" font-size="12">1,1</text>
</g>

<!-- Association EFFECTUER -->
<g>
	<line x1="677" y1="347" x2="677" y2="212" stroke="#8073ac" stroke-width="2"/>
	<line x1="677" y1="77" x2="677" y2="212" stroke="#8073ac" stroke-width="2"/>
	<g>
		<path d="M698 187 a14 14 90 0 1 14 14 V212 h-70 V201 a14 14 90 0 1 14 -14" fill="#b2abd2" stroke="#b2abd2" stroke-width="0"/>
		<path d="M712 212 v11 a14 14 90 0 1 -14 14 H656 a14 14 90 0 1 -14 -14 V212 H70" fill="#d8daeb" stroke="#d8daeb" stroke-width="0"/>
		<rect x="642" y="187" width="70" height="50" fill="none" rx="14" stroke="#8073ac" stroke-width="2"/>
		<line x1="642" y1="212" x2="712" y2="212" stroke="#8073ac" stroke-width="1"/>
		<text x="650" y="204.75" fill="#000000" font-family="Verdana" font-size="12">effectuer</text>
	</g>
	<text x="682" y="271" fill="#b35806" font-family="Verdana" font-size="12">0,N</text>
	<text x="682" y="145" fill="#b35806" font-family="Verdana" font-size="12">1,1</text>
</g>

<!-- Association CONTENIR -->
<g>
	<line x1="49" y1="347" x2="153" y2="347" stroke="#8073ac" stroke-width="2"/>
	<line x1="153" y1="508" x2="153" y2="347" stroke="#8073ac" stroke-width="2"/>
	<g>
		<path d="M171 322 a14 14 90 0 1 14 14 V347 h-64 V336 a14 14 90 0 1 14 -14" fill="#b2abd2" stroke="#b2abd2" stroke-width="0"/>
		<path d="M185 347 v11 a14 14 90 0 1 -14 14 H135 a14 14 90 0 1 -14 -14 V347 H64" fill="#d8daeb" stroke="#d8daeb" stroke-width="0"/>
		<rect x="121" y="322" width="64" height="50" fill="none" rx="14" stroke="#8073ac" stroke-width="2"/>
		<line x1="121" y1="347" x2="185" y2="347" stroke="#8073ac" stroke-width="1"/>
		<text x="128" y="339.75" fill="#000000" font-family="Verdana" font-size="12">contenir</text>
	</g>
	<text x="94" y="364" fill="#b35806" font-family="Verdana" font-size="12">0,N</text>
	<text x="158" y="432" fill="#b35806" font-family="Verdana" font-size="12">1,1</text>
</g>

<!-- Association ETRE -->
<g>
	<line x1="153" y1="508" x2="49" y2="508" stroke="#8073ac" stroke-width="2"/>
	<line x1="49" y1="643" x2="49" y2="508" stroke="#8073ac" stroke-width="2"/>
	<g>
		<path d="M55 483 a14 14 90 0 1 14 14 V508 h-40 V497 a14 14 90 0 1 14 -14" fill="#b2abd2" stroke="#b2abd2" stroke-width="0"/>
		<path d="M69 508 v11 a14 14 90 0 1 -14 14 H43 a14 14 90 0 1 -14 -14 V508 H40" fill="#d8daeb" stroke="#d8daeb" stroke-width="0"/>
		<rect x="29" y="483" width="40" height="50" fill="none" rx="14" stroke="#8073ac" stroke-width="2"/>
		<line x1="29" y1="508" x2="69" y2="508" stroke="#8073ac" stroke-width="1"/>
		<text x="37" y="500.75" fill="#000000" font-family="Verdana" font-size="12">être</text>
	</g>
	<text x="86" y="525" fill="#b35806" font-family="Verdana" font-size="12">1,1</text>
	<text x="54" y="601" fill="#b35806" font-family="Verdana" font-size="12">0,N</text>
</g>

<!-- Association MAITRISER -->
<g>
	<line x1="343" y1="643" x2="343" y2="508" stroke="#8073ac" stroke-width="2"/>
	<line x1="343" y1="347" x2="343" y2="508" stroke="#8073ac" stroke-width="2"/>
	<g>
		<path d="M364 483 a14 14 90 0 1 14 14 V508 h-70 V497 a14 14 90 0 1 14 -14" fill="#b2abd2" stroke="#b2abd2" stroke-width="0"/>
		<path d="M378 508 v11 a14 14 90 0 1 -14 14 H322 a14 14 90 0 1 -14 -14 V508 H70" fill="#d8daeb" stroke="#d8daeb" stroke-width="0"/>
		<rect x="308" y="483" width="70" height="50" fill="none" rx="14" stroke="#8073ac" stroke-width="2"/>
		<line x1="308" y1="508" x2="378" y2="508" stroke="#8073ac" stroke-width="1"/>
		<text x="316" y="500.75" fill="#000000" font-family="Verdana" font-size="12">maîtriser</text>
	</g>
	<text x="316" y="550" fill="#b35806" font-family="Verdana" font-size="12">1,N</text>
	<text x="348" y="406" fill="#b35806" font-family="Verdana" font-size="12">0,N</text>
</g>

<!-- Association ENGLOBER -->
<g>
	<line x1="546" y1="347" x2="546" y2="508" stroke="#8073ac" stroke-width="2"/>
	<line x1="343" y1="643" x2="546" y2="508" stroke="#8073ac" stroke-width="2"/>
	<g>
		<path d="M566 483 a14 14 90 0 1 14 14 V508 h-68 V497 a14 14 90 0 1 14 -14" fill="#b2abd2" stroke="#b2abd2" stroke-width="0"/>
		<path d="M580 508 v11 a14 14 90 0 1 -14 14 H526 a14 14 90 0 1 -14 -14 V508 H68" fill="#d8daeb" stroke="#d8daeb" stroke-width="0"/>
		<rect x="512" y="483" width="68" height="50" fill="none" rx="14" stroke="#8073ac" stroke-width="2"/>
		<line x1="512" y1="508" x2="580" y2="508" stroke="#8073ac" stroke-width="1"/>
		<text x="519" y="500.75" fill="#000000" font-family="Verdana" font-size="12">englober</text>
	</g>
	<text x="551" y="398" fill="#b35806" font-family="Verdana" font-size="12">1,N</text>
	<text x="414" y="611.01" fill="#b35806" font-family="Verdana" font-size="12">0,N</text>
</g>

<!-- Association POSSEDER -->
<g>
	<line x1="677" y1="347" x2="677" y2="508" stroke="#8073ac" stroke-width="2"/>
	<line x1="677" y1="643" x2="677" y2="508" stroke="#8073ac" stroke-width="2"/>
	<g>
		<path d="M698 483 a14 14 90 0 1 14 14 V508 h-70 V497 a14 14 90 0 1 14 -14" fill="#b2abd2" stroke="#b2abd2" stroke-width="0"/>
		<path d="M712 508 v11 a14 14 90 0 1 -14 14 H656 a14 14 90 0 1 -14 -14 V508 H70" fill="#d8daeb" stroke="#d8daeb" stroke-width="0"/>
		<rect x="642" y="483" width="70" height="50" fill="none" rx="14" stroke="#8073ac" stroke-width="2"/>
		<line x1="642" y1="508" x2="712" y2="508" stroke="#8073ac" stroke-width="1"/>
		<text x="650" y="500.75" fill="#000000" font-family="Verdana" font-size="12">posséder</text>
	</g>
	<text x="682" y="432" fill="#b35806" font-family="Verdana" font-size="12">0,1</text>
	<text x="682" y="610" fill="#b35806" font-family="Verdana" font-size="12">1,1</text>
</g>

<!-- Association EVOLUER -->
<g>
	<line x1="153" y1="508" x2="153" y2="643" stroke="#8073ac" stroke-width="2"/>
	<line x1="343" y1="643" x2="153" y2="643" stroke="#8073ac" stroke-width="2"/>
	<g>
		<path d="M169 618 a14 14 90 0 1 14 14 V643 h-60 V632 a14 14 90 0 1 14 -14" fill="#b2abd2" stroke="#b2abd2" stroke-width="0"/>
		<path d="M183 643 v11 a14 14 90 0 1 -14 14 H137 a14 14 90 0 1 -14 -14 V643 H60" fill="#d8daeb" stroke="#d8daeb" stroke-width="0"/>
		<rect x="123" y="618" width="60" height="50" fill="none" rx="14" stroke="#8073ac" stroke-width="2"/>
		<line x1="123" y1="643" x2="183" y2="643" stroke="#8073ac" stroke-width="1"/>
		<text x="130" y="635.75" fill="#000000" font-family="Verdana" font-size="12">évoluer</text>
	</g>
	<text x="158" y="593" fill="#b35806" font-family="Verdana" font-size="12">1,N</text>
	<text x="251" y="660" fill="#b35806" font-family="Verdana" font-size="12">1,1</text>
</g>

<!-- Association INCLURE -->
<g>
	<line x1="677" y1="643" x2="546" y2="643" stroke="#8073ac" stroke-width="2"/>
	<line x1="343" y1="643" x2="546" y2="643" stroke="#8073ac" stroke-width="2"/>
	<g>
		<path d="M560 618 a14 14 90 0 1 14 14 V643 h-56 V632 a14 14 90 0 1 14 -14" fill="#b2abd2" stroke="#b2abd2" stroke-width="0"/>
		<path d="M574 643 v11 a14 14 90 0 1 -14 14 H532 a14 14 90 0 1 -14 -14 V643 H56" fill="#d8daeb" stroke="#d8daeb" stroke-width="0"/>
		<rect x="518" y="618" width="56" height="50" fill="none" rx="14" stroke="#8073ac" stroke-width="2"/>
		<line x1="518" y1="643" x2="574" y2="643" stroke="#8073ac" stroke-width="1"/>
		<text x="526" y="635.75" fill="#000000" font-family="Verdana" font-size="12">inclure</text>
	</g>
	<text x="600" y="660" fill="#b35806" font-family="Verdana" font-size="12">0,N</text>
	<text x="414" y="660" fill="#b35806" font-family="Verdana" font-size="12">0,N</text>
</g>

<!-- Entity BONUS -->
<g>
	<g>
		<rect x="9" y="43" width="80" height="25" fill="#fdb863" stroke="none" stroke-width="0" opacity="1"/>
		<rect x="9" y="68" width="80" height="43" fill="#fee0b6" stroke="none" stroke-width="0" opacity="1"/>
		<rect x="9" y="43" width="80" height="68" fill="none" stroke="#e08214" stroke-width="2" opacity="1"/>
		<line x1="9" y1="68" x2="89" y2="68" stroke="#e08214" stroke-width="1"/>
	</g>
	<text x="31" y="60.75" fill="#000000" font-family="Verdana" font-size="12">bonus</text>
	<text x="14" y="85.8" fill="#000000" font-family="Verdana" font-size="12">code bonus</text>
	<line x1="14" y1="88" x2="84" y2="88" stroke="#000000" stroke-width="1"/>
	<text x="14" y="102.8" fill="#000000" font-family="Verdana" font-size="12">mode</text>
</g>

<!-- Entity BOOSTER -->
<g>
	<g>
		<rect x="215" y="9" width="256" height="25" fill="#fdb863" stroke="none" stroke-width="0" opacity="1"/>
		<rect x="215" y="34" width="256" height="111" fill="#fee0b6" stroke="none" stroke-width="0" opacity="1"/>
		<rect x="215" y="9" width="256" height="136" fill="none" stroke="#e08214" stroke-width="2" opacity="1"/>
		<line x1="215" y1="34" x2="471" y2="34" stroke="#e08214" stroke-width="1"/>
	</g>
	<text x="320" y="26.75" fill="#000000" font-family="Verdana" font-size="12">booster</text>
	<text x="220" y="51.8" fill="#000000" font-family="Verdana" font-size="12">code booster</text>
	<line x1="220" y1="54" x2="299" y2="54" stroke="#000000" stroke-width="1"/>
	<text x="220" y="68.8" fill="#000000" font-family="Verdana" font-size="12">price</text>
	<text x="220" y="85.8" fill="#000000" font-family="Verdana" font-size="12">pourcentage obtention carte commune</text>
	<text x="220" y="102.8" fill="#000000" font-family="Verdana" font-size="12">pourcentage obtention carte inhabituelle</text>
	<text x="220" y="119.8" fill="#000000" font-family="Verdana" font-size="12">pourcentage obtention carte rare</text>
	<text x="220" y="136.8" fill="#000000" font-family="Verdana" font-size="12">pourcentage obtention carte légendaire</text>
</g>

<!-- Entity TRANSACTION -->
<g>
	<g>
		<rect x="621" y="26" width="112" height="25" fill="#fdb863" stroke="none" stroke-width="0" opacity="1"/>
		<rect x="621" y="51" width="112" height="77" fill="#fee0b6" stroke="none" stroke-width="0" opacity="1"/>
		<rect x="621" y="26" width="112" height="102" fill="none" stroke="#e08214" stroke-width="2" opacity="1"/>
		<line x1="621" y1="51" x2="733" y2="51" stroke="#e08214" stroke-width="1"/>
	</g>
	<text x="643" y="43.75" fill="#000000" font-family="Verdana" font-size="12">transaction</text>
	<text x="626" y="68.8" fill="#000000" font-family="Verdana" font-size="12">code transaction</text>
	<line x1="626" y1="71" x2="727" y2="71" stroke="#000000" stroke-width="1"/>
	<text x="626" y="85.8" fill="#000000" font-family="Verdana" font-size="12">type</text>
	<text x="626" y="102.8" fill="#000000" font-family="Verdana" font-size="12">montant</text>
	<text x="626" y="119.8" fill="#000000" font-family="Verdana" font-size="12">description</text>
</g>

<!-- Entity EFFET -->
<g>
	<g>
		<rect x="114" y="170" width="78" height="25" fill="#fdb863" stroke="none" stroke-width="0" opacity="1"/>
		<rect x="114" y="195" width="78" height="59" fill="#fee0b6" stroke="none" stroke-width="0" opacity="1"/>
		<rect x="114" y="170" width="78" height="84" fill="none" stroke="#e08214" stroke-width="2" opacity="1"/>
		<line x1="114" y1="195" x2="192" y2="195" stroke="#e08214" stroke-width="1"/>
	</g>
	<text x="139" y="187.75" fill="#000000" font-family="Verdana" font-size="12">effet</text>
	<text x="119" y="212.8" fill="#000000" font-family="Verdana" font-size="12">code effet</text>
	<line x1="119" y1="215" x2="180" y2="215" stroke="#000000" stroke-width="1"/>
	<text x="119" y="229.8" fill="#000000" font-family="Verdana" font-size="12">code</text>
	<text x="119" y="246.8" fill="#000000" font-family="Verdana" font-size="12">description</text>
</g>

<!-- Entity LEGION -->
<g>
	<g>
		<rect x="9" y="279" width="80" height="25" fill="#fdb863" stroke="none" stroke-width="0" opacity="1"/>
		<rect x="9" y="304" width="80" height="111" fill="#fee0b6" stroke="none" stroke-width="0" opacity="1"/>
		<rect x="9" y="279" width="80" height="136" fill="none" stroke="#e08214" stroke-width="2" opacity="1"/>
		<line x1="9" y1="304" x2="89" y2="304" stroke="#e08214" stroke-width="1"/>
	</g>
	<text x="31" y="296.75" fill="#000000" font-family="Verdana" font-size="12">légion</text>
	<text x="14" y="321.8" fill="#000000" font-family="Verdana" font-size="12">code légion</text>
	<line x1="14" y1="324" x2="83" y2="324" stroke="#000000" stroke-width="1"/>
	<text x="14" y="338.8" fill="#000000" font-family="Verdana" font-size="12">nom</text>
	<text x="14" y="355.8" fill="#000000" font-family="Verdana" font-size="12">image</text>
	<text x="14" y="372.8" fill="#000000" font-family="Verdana" font-size="12">logo</text>
	<text x="14" y="389.8" fill="#000000" font-family="Verdana" font-size="12">description</text>
	<text x="14" y="406.8" fill="#000000" font-family="Verdana" font-size="12">slogan</text>
</g>

<!-- Entity CAPACITE -->
<g>
	<g>
		<rect x="296" y="305" width="94" height="25" fill="#fdb863" stroke="none" stroke-width="0" opacity="1"/>
		<rect x="296" y="330" width="94" height="59" fill="#fee0b6" stroke="none" stroke-width="0" opacity="1"/>
		<rect x="296" y="305" width="94" height="84" fill="none" stroke="#e08214" stroke-width="2" opacity="1"/>
		<line x1="296" y1="330" x2="390" y2="330" stroke="#e08214" stroke-width="1"/>
	</g>
	<text x="318" y="322.75" fill="#000000" font-family="Verdana" font-size="12">capacité</text>
	<text x="301" y="347.8" fill="#000000" font-family="Verdana" font-size="12">code capacité</text>
	<line x1="301" y1="350" x2="384" y2="350" stroke="#000000" stroke-width="1"/>
	<text x="301" y="364.8" fill="#000000" font-family="Verdana" font-size="12">nom</text>
	<text x="301" y="381.8" fill="#000000" font-family="Verdana" font-size="12">mode</text>
</g>

<!-- Entity DECK -->
<g>
	<g>
		<rect x="510" y="313" width="72" height="25" fill="#fdb863" stroke="none" stroke-width="0" opacity="1"/>
		<rect x="510" y="338" width="72" height="43" fill="#fee0b6" stroke="none" stroke-width="0" opacity="1"/>
		<rect x="510" y="313" width="72" height="68" fill="none" stroke="#e08214" stroke-width="2" opacity="1"/>
		<line x1="510" y1="338" x2="582" y2="338" stroke="#e08214" stroke-width="1"/>
	</g>
	<text x="532" y="330.75" fill="#000000" font-family="Verdana" font-size="12">deck</text>
	<text x="515" y="355.8" fill="#000000" font-family="Verdana" font-size="12">code deck</text>
	<line x1="515" y1="358" x2="576" y2="358" stroke="#000000" stroke-width="1"/>
	<text x="515" y="372.8" fill="#000000" font-family="Verdana" font-size="12">nom</text>
</g>

<!-- Entity UTILISATEUR -->
<g>
	<g>
		<rect x="625" y="279" width="104" height="25" fill="#fdb863" stroke="none" stroke-width="0" opacity="1"/>
		<rect x="625" y="304" width="104" height="111" fill="#fee0b6" stroke="none" stroke-width="0" opacity="1"/>
		<rect x="625" y="279" width="104" height="136" fill="none" stroke="#e08214" stroke-width="2" opacity="1"/>
		<line x1="625" y1="304" x2="729" y2="304" stroke="#e08214" stroke-width="1"/>
	</g>
	<text x="647" y="296.75" fill="#000000" font-family="Verdana" font-size="12">utilisateur</text>
	<text x="630" y="321.8" fill="#000000" font-family="Verdana" font-size="12">code utilisateur</text>
	<line x1="630" y1="324" x2="724" y2="324" stroke="#000000" stroke-width="1"/>
	<text x="630" y="338.8" fill="#000000" font-family="Verdana" font-size="12">pseudo</text>
	<text x="630" y="355.8" fill="#000000" font-family="Verdana" font-size="12">email</text>
	<text x="630" y="372.8" fill="#000000" font-family="Verdana" font-size="12">mot de passe</text>
	<text x="630" y="389.8" fill="#000000" font-family="Verdana" font-size="12">expérience</text>
	<text x="630" y="406.8" fill="#000000" font-family="Verdana" font-size="12">tokens</text>
</g>

<!-- Entity CARTE -->
<g>
	<g>
		<rect x="112" y="440" width="82" height="25" fill="#fdb863" stroke="none" stroke-width="0" opacity="1"/>
		<rect x="112" y="465" width="82" height="111" fill="#fee0b6" stroke="none" stroke-width="0" opacity="1"/>
		<rect x="112" y="440" width="82" height="136" fill="none" stroke="#e08214" stroke-width="2" opacity="1"/>
		<line x1="112" y1="465" x2="194" y2="465" stroke="#e08214" stroke-width="1"/>
	</g>
	<text x="138" y="457.75" fill="#000000" font-family="Verdana" font-size="12">carte</text>
	<text x="117" y="482.8" fill="#000000" font-family="Verdana" font-size="12">code carte</text>
	<line x1="117" y1="485" x2="181" y2="485" stroke="#000000" stroke-width="1"/>
	<text x="117" y="499.8" fill="#000000" font-family="Verdana" font-size="12">nom</text>
	<text x="117" y="516.8" fill="#000000" font-family="Verdana" font-size="12">description</text>
	<text x="117" y="533.8" fill="#000000" font-family="Verdana" font-size="12">type</text>
	<text x="117" y="550.8" fill="#000000" font-family="Verdana" font-size="12">experience</text>
	<text x="117" y="567.8" fill="#000000" font-family="Verdana" font-size="12">niveau max</text>
</g>

<!-- Entity RARETE -->
<g>
	<g>
		<rect x="9" y="609" width="80" height="25" fill="#fdb863" stroke="none" stroke-width="0" opacity="1"/>
		<rect x="9" y="634" width="80" height="43" fill="#fee0b6" stroke="none" stroke-width="0" opacity="1"/>
		<rect x="9" y="609" width="80" height="68" fill="none" stroke="#e08214" stroke-width="2" opacity="1"/>
		<line x1="9" y1="634" x2="89" y2="634" stroke="#e08214" stroke-width="1"/>
	</g>
	<text x="30" y="626.75" fill="#000000" font-family="Verdana" font-size="12">rareté</text>
	<text x="14" y="651.8" fill="#000000" font-family="Verdana" font-size="12">code rareté</text>
	<line x1="14" y1="654" x2="84" y2="654" stroke="#000000" stroke-width="1"/>
	<text x="14" y="668.8" fill="#000000" font-family="Verdana" font-size="12">nom</text>
</g>

<!-- Entity EVOLUTION -->
<g>
	<g>
		<rect x="277" y="558" width="132" height="25" fill="#fdb863" stroke="none" stroke-width="0" opacity="1"/>
		<rect x="277" y="583" width="132" height="145" fill="#fee0b6" stroke="none" stroke-width="0" opacity="1"/>
		<rect x="277" y="558" width="132" height="170" fill="none" stroke="#e08214" stroke-width="2" opacity="1"/>
		<line x1="277" y1="583" x2="409" y2="583" stroke="#e08214" stroke-width="1"/>
	</g>
	<text x="315" y="575.75" fill="#000000" font-family="Verdana" font-size="12">évolution</text>
	<text x="282" y="600.8" fill="#000000" font-family="Verdana" font-size="12">code évolution</text>
	<line x1="282" y1="603" x2="371" y2="603" stroke="#000000" stroke-width="1"/>
	<text x="282" y="617.8" fill="#000000" font-family="Verdana" font-size="12">niveau</text>
	<text x="282" y="634.8" fill="#000000" font-family="Verdana" font-size="12">expérience recquise</text>
	<text x="282" y="651.8" fill="#000000" font-family="Verdana" font-size="12">puissance</text>
	<text x="282" y="668.8" fill="#000000" font-family="Verdana" font-size="12">défense</text>
	<text x="282" y="685.8" fill="#000000" font-family="Verdana" font-size="12">dégâts</text>
	<text x="282" y="702.8" fill="#000000" font-family="Verdana" font-size="12">points de vie</text>
	<text x="282" y="719.8" fill="#000000" font-family="Verdana" font-size="12">image</text>
</g>

<!-- Entity COLLECTION -->
<g>
	<g>
		<rect x="627" y="618" width="100" height="25" fill="#fdb863" stroke="none" stroke-width="0" opacity="1"/>
		<rect x="627" y="643" width="100" height="25" fill="#fee0b6" stroke="none" stroke-width="0" opacity="1"/>
		<rect x="627" y="618" width="100" height="50" fill="none" stroke="#e08214" stroke-width="2" opacity="1"/>
		<line x1="627" y1="643" x2="727" y2="643" stroke="#e08214" stroke-width="1"/>
	</g>
	<text x="649" y="635.75" fill="#000000" font-family="Verdana" font-size="12">collection</text>
	<text x="632" y="660.8" fill="#000000" font-family="Verdana" font-size="12">code collection</text>
	<line x1="632" y1="663" x2="722" y2="663" stroke="#000000" stroke-width="1"/>
</g>
</svg>